<svg version="1.1" xmlns="http://www.w3.org/2000/svg" viewBox="0 0 1687.9508107683512 2096.602147935447" width="3375.9016215367024" height="4193.204295870894">
  <!-- svg-source:excalidraw -->
  
  <defs>
    <style class="style-fonts">
      @font-face {
        font-family: "Virgil";
        src: url("https://excalidraw.com/Virgil.woff2");
      }
      @font-face {
        font-family: "Cascadia";
        src: url("https://excalidraw.com/Cascadia.woff2");
      }
      @font-face {
        font-family: "Assistant";
        src: url("https://excalidraw.com/Assistant-Regular.woff2");
      }
    </style>
    
  </defs>
  <rect x="0" y="0" width="1687.9508107683512" height="2096.602147935447" fill="#ffffff"></rect><g stroke-linecap="round" transform="translate(10 10) rotate(0 833.9754053841756 1038.3010739677236)"><path d="M32 0 C356.56 0, 681.13 0, 1635.95 0 C1657.28 0, 1667.95 10.67, 1667.95 32 C1667.95 554.86, 1667.95 1077.72, 1667.95 2044.6 C1667.95 2065.94, 1657.28 2076.6, 1635.95 2076.6 C1175.97 2076.6, 716 2076.6, 32 2076.6 C10.67 2076.6, 0 2065.94, 0 2044.6 C0 1552.04, 0 1059.49, 0 32 C0 10.67, 10.67 0, 32 0" stroke="none" stroke-width="0" fill="#a5d8ff"></path><path d="M32 0 C661.6 0, 1291.21 0, 1635.95 0 M32 0 C368.49 0, 704.98 0, 1635.95 0 M1635.95 0 C1657.28 0, 1667.95 10.67, 1667.95 32 M1635.95 0 C1657.28 0, 1667.95 10.67, 1667.95 32 M1667.95 32 C1667.95 754.49, 1667.95 1476.97, 1667.95 2044.6 M1667.95 32 C1667.95 435.28, 1667.95 838.56, 1667.95 2044.6 M1667.95 2044.6 C1667.95 2065.94, 1657.28 2076.6, 1635.95 2076.6 M1667.95 2044.6 C1667.95 2065.94, 1657.28 2076.6, 1635.95 2076.6 M1635.95 2076.6 C1293.08 2076.6, 950.22 2076.6, 32 2076.6 M1635.95 2076.6 C1281.45 2076.6, 926.95 2076.6, 32 2076.6 M32 2076.6 C10.67 2076.6, 0 2065.94, 0 2044.6 M32 2076.6 C10.67 2076.6, 0 2065.94, 0 2044.6 M0 2044.6 C0 1581.53, 0 1118.45, 0 32 M0 2044.6 C0 1362.58, 0 680.56, 0 32 M0 32 C0 10.67, 10.67 0, 32 0 M0 32 C0 10.67, 10.67 0, 32 0" stroke="#1e1e1e" stroke-width="4" fill="none"></path></g><g transform="translate(1018.7345505876272 1449.0723726446704) rotate(0 100.1953125 20.700000000000045)"><text x="100.1953125" y="0" font-family="Helvetica, Segoe UI Emoji" font-size="36px" fill="#1e1e1e" text-anchor="middle" style="white-space: pre;" direction="ltr" dominant-baseline="text-before-edge">Н_ОЦЕНКИ</text></g><g transform="translate(85.52077318242755 1990.7730692046568) rotate(0 139.6318359375 20.700000000000045)"><text x="139.6318359375" y="0" font-family="Helvetica, Segoe UI Emoji" font-size="36px" fill="#1e1e1e" text-anchor="middle" style="white-space: pre;" direction="ltr" dominant-baseline="text-before-edge">Н_ВЕДОМОСТИ</text></g><g stroke-linecap="round"><g transform="translate(199.00602364525093 1953.3358334423285) rotate(0 0 -72.70661638254592)"><path d="M0 0 C0 -24.24, 0 -121.18, 0 -145.41 M0 0 C0 -24.24, 0 -121.18, 0 -145.41" stroke="#e03131" stroke-width="4" fill="none"></path></g></g><mask></mask><g transform="translate(1072.315870594685 875.7682051590339) rotate(0 30.12843728816995 56.7214192654659)"><text x="30.128437288169955" y="0" font-family="Helvetica, Segoe UI Emoji" font-size="98.64594654863642px" fill="#1e1e1e" text-anchor="middle" style="white-space: pre;" direction="ltr" dominant-baseline="text-before-edge">σ</text></g><g transform="translate(1135.7931807215734 958.4785956312276) rotate(0 200.12240600585938 12.972817212125108)"><text x="200.12240600585938" y="0" font-family="Helvetica, Segoe UI Emoji" font-size="22.561421238478466px" fill="#1e1e1e" text-anchor="middle" style="white-space: pre;" direction="ltr" dominant-baseline="text-before-edge">Н_ОЦЕНКИ.ПРИМЕЧАНИЕ &gt; 'неявка'</text></g><g transform="translate(182.6808880413903 1411.284989446727) rotate(0 30.12843728816995 56.7214192654659)"><text x="30.128437288169955" y="0" font-family="Helvetica, Segoe UI Emoji" font-size="98.64594654863642px" fill="#1e1e1e" text-anchor="middle" style="white-space: pre;" direction="ltr" dominant-baseline="text-before-edge">σ</text></g><g transform="translate(242.5075983844447 1216.532363332275) rotate(0 163.4711151123047 12.972817212125108)"><text x="163.4711151123047" y="0" font-family="Helvetica, Segoe UI Emoji" font-size="22.561421238478466px" fill="#1e1e1e" text-anchor="middle" style="white-space: pre;" direction="ltr" dominant-baseline="text-before-edge">Н_ВЕДОМОСТИ.ИД = 1457443</text></g><g transform="translate(184.23096075975195 1129.1717547049977) rotate(0 30.12843728816995 56.7214192654659)"><text x="30.128437288169955" y="0" font-family="Helvetica, Segoe UI Emoji" font-size="98.64594654863642px" fill="#1e1e1e" text-anchor="middle" style="white-space: pre;" direction="ltr" dominant-baseline="text-before-edge">σ</text></g><g transform="translate(245.75473897857432 1495.5454526372819) rotate(0 150.9235382080078 12.972817212125165)"><text x="150.9235382080078" y="0" font-family="Helvetica, Segoe UI Emoji" font-size="22.561421238478466px" fill="#1e1e1e" text-anchor="middle" style="white-space: pre;" direction="ltr" dominant-baseline="text-before-edge">Н_ВЕДОМОСТИ.ИД &gt; 39921</text></g><g stroke-linecap="round"><g transform="translate(210.8223897376995 1398.106335005513) rotate(0 0 -72.70661638254597)"><path d="M0 0 C0 -24.24, 0 -121.18, 0 -145.41 M0 0 C0 -24.24, 0 -121.18, 0 -145.41" stroke="#e03131" stroke-width="4" fill="none"></path></g></g><mask></mask><g stroke-linecap="round"><g transform="translate(1106.796874549639 1425.7730002445605) rotate(0 0 -72.70661638254597)"><path d="M0 0 C0 -24.24, 0 -121.18, 0 -145.41 M0 0 C0 -24.24, 0 -121.18, 0 -145.41" stroke="#e03131" stroke-width="4" fill="none"></path></g></g><mask></mask><g stroke-linecap="round"><g transform="translate(207.64977492426988 1676.308080852339) rotate(0 0 -72.70661638254592)"><path d="M0 0 C0 -24.24, 0 -121.18, 0 -145.41 M0 0 C0 -24.24, 0 -121.18, 0 -145.41" stroke="#e03131" stroke-width="4" fill="none"></path></g></g><mask></mask><g transform="translate(174.40777958414924 1675.9223286166466) rotate(0 28.888130716244405 55.92819716279894)"><text x="28.888130716244415" y="0" font-family="Helvetica, Segoe UI Emoji" font-size="97.26642984834608px" fill="#1e1e1e" text-anchor="middle" style="white-space: pre;" direction="ltr" dominant-baseline="text-before-edge">𝛑</text></g><g transform="translate(243.9102575790539 1762.5660473758) rotate(0 381.63287353515625 12.972817212125165)"><text x="381.63287353515625" y="0" font-family="Helvetica, Segoe UI Emoji" font-size="22.561421238478466px" fill="#1e1e1e" text-anchor="middle" style="white-space: pre;" direction="ltr" dominant-baseline="text-before-edge">Н_ВЕДОМОСТИ.ИД , Н_ВЕДОМОСТИ.ОЦЕНКА, Н_ВЕДОМОСТИ.ДАТА</text></g><g stroke-linecap="round"><g transform="translate(1107.7086142806845 1156.2869427566347) rotate(0 0 -72.70661638254597)"><path d="M0 0 C0 -24.24, 0 -121.18, 0 -145.41 M0 0 C0 -24.24, 0 -121.18, 0 -145.41" stroke="#e03131" stroke-width="4" fill="none"></path></g></g><mask></mask><g transform="translate(1080.759576053357 1155.313241913961) rotate(0 28.888130716244405 55.928197162798995)"><text x="28.888130716244415" y="0" font-family="Helvetica, Segoe UI Emoji" font-size="97.26642984834608px" fill="#1e1e1e" text-anchor="middle" style="white-space: pre;" direction="ltr" dominant-baseline="text-before-edge">𝛑</text></g><g transform="translate(1147.2053700909257 1235.7977902825887) rotate(0 241.88523864746094 12.972817212125108)"><text x="241.88523864746094" y="0" font-family="Helvetica, Segoe UI Emoji" font-size="22.561421238478466px" fill="#1e1e1e" text-anchor="middle" style="white-space: pre;" direction="ltr" dominant-baseline="text-before-edge">Н_ОЦЕНКИ.КОД, Н_ОЦЕНКИ.ПРИМЕЧАНИЕ</text></g><g transform="translate(700.0022701401342 606.0355714457764) rotate(0 241.5106964111328 12.972817212125108)"><text x="241.5106964111328" y="0" font-family="Helvetica, Segoe UI Emoji" font-size="22.561421238478466px" fill="#1e1e1e" text-anchor="middle" style="white-space: pre;" direction="ltr" dominant-baseline="text-before-edge">Н_ВЕДОМОСТИ.ОЦЕНКА = Н_ОЦЕНКИ.КОД</text></g><g transform="translate(620.3495161532712 522.2438309352905) rotate(0 36.66138082286841 54.579572764867095)"><text x="36.661380822868445" y="0" font-family="Helvetica, Segoe UI Emoji" font-size="94.92099611281236px" fill="#1e1e1e" text-anchor="middle" style="white-space: pre;" direction="ltr" dominant-baseline="text-before-edge">⋈</text></g><g stroke-linecap="round"><g transform="translate(228.10574010123514 872.3827880435961) rotate(0 196.33504805682423 -116.15735042786733)"><path d="M0 0 C65.45 -38.72, 327.23 -193.6, 392.67 -232.31 M0 0 C65.45 -38.72, 327.23 -193.6, 392.67 -232.31" stroke="#e03131" stroke-width="4" fill="none"></path></g></g><mask></mask><g stroke-linecap="round"><g transform="translate(702.1335928133278 642.0020742771646) rotate(0 179.9707775195336 122.13503528854199)"><path d="M0 0 C59.99 40.71, 299.95 203.56, 359.94 244.27 M0 0 C59.99 40.71, 299.95 203.56, 359.94 244.27" stroke="#e03131" stroke-width="4" fill="none"></path></g></g><mask></mask><g stroke-linecap="round"><g transform="translate(662.6956907904312 513.0486925584692) rotate(0 0 -72.70661638254596)"><path d="M0 0 C0 -24.24, 0 -121.18, 0 -145.41 M0 0 C0 -24.24, 0 -121.18, 0 -145.41" stroke="#e03131" stroke-width="4" fill="none"></path></g></g><mask></mask><g transform="translate(633.8075600741865 248.47067255974207) rotate(0 28.888130716244405 55.92819716279899)"><text x="28.888130716244415" y="0" font-family="Helvetica, Segoe UI Emoji" font-size="97.26642984834608px" fill="#1e1e1e" text-anchor="middle" style="white-space: pre;" direction="ltr" dominant-baseline="text-before-edge">𝛑</text></g><g transform="translate(697.6102874846854 330.42710378707034) rotate(0 272.49407958984375 12.972817212125115)"><text x="272.49407958984375" y="0" font-family="Helvetica, Segoe UI Emoji" font-size="22.561421238478466px" fill="#1e1e1e" text-anchor="middle" style="white-space: pre;" direction="ltr" dominant-baseline="text-before-edge">Н_ОЦЕНКИ.ПРИМЕЧАНИЕ, Н_ВЕДОМОСТИ.ДАТА</text></g><g stroke-linecap="round"><g transform="translate(661.4201361170533 257.93775788286985) rotate(0 0 -72.70661638254596)"><path d="M0 0 C0 -24.24, 0 -121.18, 0 -145.41 M0 0 C0 -24.24, 0 -121.18, 0 -145.41" stroke="#e03131" stroke-width="4" fill="none"></path></g></g><mask></mask><g transform="translate(593.5705176267436 54.106921006404264) rotate(0 87.3544921875 20.700000000000003)"><text x="87.3544921875" y="0" font-family="Helvetica, Segoe UI Emoji" font-size="36px" fill="#1e1e1e" text-anchor="middle" style="white-space: pre;" direction="ltr" dominant-baseline="text-before-edge">Результат</text></g><g stroke-linecap="round"><g transform="translate(216.47286995191462 1136.8920823714643) rotate(0 0 -72.70661638254597)"><path d="M0 0 C0 -24.24, 0 -121.18, 0 -145.41 M0 0 C0 -24.24, 0 -121.18, 0 -145.41" stroke="#e03131" stroke-width="4" fill="none"></path></g></g><mask></mask><g transform="translate(191.87462589081315 859.4785775457825) rotate(0 28.888130716244405 55.928197162798995)"><text x="28.888130716244415" y="0" font-family="Helvetica, Segoe UI Emoji" font-size="97.26642984834608px" fill="#1e1e1e" text-anchor="middle" style="white-space: pre;" direction="ltr" dominant-baseline="text-before-edge">𝛑</text></g><g transform="translate(262.6396335747495 941.4350087731108) rotate(0 265.53179931640625 12.972817212125108)"><text x="265.53179931640625" y="0" font-family="Helvetica, Segoe UI Emoji" font-size="22.561421238478466px" fill="#1e1e1e" text-anchor="middle" style="white-space: pre;" direction="ltr" dominant-baseline="text-before-edge">Н_ВЕДОМОСТИ.ОЦЕНКА, Н_ВЕДОМОСТИ.ДАТА</text></g></svg>