<svg version="1.1" xmlns="http://www.w3.org/2000/svg" viewBox="0 0 1247.9288458141655 1857.3453841071218" width="2495.857691628331" height="3714.6907682142437">
  <!-- svg-source:excalidraw -->
  
  <defs>
    <style class="style-fonts">
      @font-face {
        font-family: "Virgil";
        src: url("https://excalidraw.com/Virgil.woff2");
      }
      @font-face {
        font-family: "Cascadia";
        src: url("https://excalidraw.com/Cascadia.woff2");
      }
      @font-face {
        font-family: "Assistant";
        src: url("https://excalidraw.com/Assistant-Regular.woff2");
      }
    </style>
    
  </defs>
  <rect x="0" y="0" width="1247.9288458141655" height="1857.3453841071218" fill="#ffffff"></rect><g stroke-linecap="round" transform="translate(10 10) rotate(0 613.9644229070827 918.6726920535609)"><path d="M32 0 C457.1 0, 882.2 0, 1195.93 0 C1217.26 0, 1227.93 10.67, 1227.93 32 C1227.93 716.4, 1227.93 1400.8, 1227.93 1805.35 C1227.93 1826.68, 1217.26 1837.35, 1195.93 1837.35 C888.72 1837.35, 581.51 1837.35, 32 1837.35 C10.67 1837.35, 0 1826.68, 0 1805.35 C0 1423.15, 0 1040.96, 0 32 C0 10.67, 10.67 0, 32 0" stroke="none" stroke-width="0" fill="#a5d8ff"></path><path d="M32 0 C296.59 0, 561.19 0, 1195.93 0 M32 0 C476.92 0, 921.85 0, 1195.93 0 M1195.93 0 C1217.26 0, 1227.93 10.67, 1227.93 32 M1195.93 0 C1217.26 0, 1227.93 10.67, 1227.93 32 M1227.93 32 C1227.93 435.69, 1227.93 839.38, 1227.93 1805.35 M1227.93 32 C1227.93 637.12, 1227.93 1242.24, 1227.93 1805.35 M1227.93 1805.35 C1227.93 1826.68, 1217.26 1837.35, 1195.93 1837.35 M1227.93 1805.35 C1227.93 1826.68, 1217.26 1837.35, 1195.93 1837.35 M1195.93 1837.35 C747.36 1837.35, 298.79 1837.35, 32 1837.35 M1195.93 1837.35 C731.84 1837.35, 267.76 1837.35, 32 1837.35 M32 1837.35 C10.67 1837.35, 0 1826.68, 0 1805.35 M32 1837.35 C10.67 1837.35, 0 1826.68, 0 1805.35 M0 1805.35 C0 1235.28, 0 665.22, 0 32 M0 1805.35 C0 1183.78, 0 562.22, 0 32 M0 32 C0 10.67, 10.67 0, 32 0 M0 32 C0 10.67, 10.67 0, 32 0" stroke="#1e1e1e" stroke-width="4" fill="none"></path></g><g transform="translate(713.913933320081 1708.0645446634358) rotate(0 100.1953125 20.700000000000045)"><text x="100.1953125" y="0" font-family="Helvetica, Segoe UI Emoji" font-size="36px" fill="#1e1e1e" text-anchor="middle" style="white-space: pre;" direction="ltr" dominant-baseline="text-before-edge">Н_ОЦЕНКИ</text></g><g transform="translate(113.18360313226276 1704.0108695691456) rotate(0 139.6318359375 20.700000000000045)"><text x="139.6318359375" y="0" font-family="Helvetica, Segoe UI Emoji" font-size="36px" fill="#1e1e1e" text-anchor="middle" style="white-space: pre;" direction="ltr" dominant-baseline="text-before-edge">Н_ВЕДОМОСТИ</text></g><g transform="translate(575.1200352983315 1499.8247612194475) rotate(0 241.5106964111328 12.972817212125165)"><text x="241.5106964111328" y="0" font-family="Helvetica, Segoe UI Emoji" font-size="22.561421238478466px" fill="#1e1e1e" text-anchor="middle" style="white-space: pre;" direction="ltr" dominant-baseline="text-before-edge">Н_ВЕДОМОСТИ.ОЦЕНКА = Н_ОЦЕНКИ.КОД</text></g><g stroke-linecap="round"><g transform="translate(267.427895094017 1677.4283012247165) rotate(0 114.59667089769255 -73.65339430511881)"><path d="M0 0 C38.2 -24.55, 190.99 -122.76, 229.19 -147.31 M0 0 C38.2 -24.55, 190.99 -122.76, 229.19 -147.31" stroke="#e03131" stroke-width="4" fill="none"></path></g></g><mask></mask><g stroke-linecap="round"><g transform="translate(558.6508416586466 1527.4664027928934) rotate(0 117.84961087859392 78.54123413700495)"><path d="M0 0 C39.28 26.18, 196.42 130.9, 235.7 157.08 M0 0 C39.28 26.18, 196.42 130.9, 235.7 157.08" stroke="#e03131" stroke-width="4" fill="none"></path></g></g><mask></mask><g stroke-linecap="round"><g transform="translate(535.0116562669109 1399.3470166367438) rotate(0 0 -72.70661638254592)"><path d="M0 0 C0 -24.24, 0 -121.18, 0 -145.41 M0 0 C0 -24.24, 0 -121.18, 0 -145.41" stroke="#e03131" stroke-width="4" fill="none"></path></g></g><mask></mask><g transform="translate(504.88321897873993 1131.1894100014122) rotate(0 30.128437288170062 56.7214192654659)"><text x="30.128437288169955" y="0" font-family="Helvetica, Segoe UI Emoji" font-size="98.64594654863642px" fill="#1e1e1e" text-anchor="middle" style="white-space: pre;" direction="ltr" dominant-baseline="text-before-edge">σ</text></g><g transform="translate(568.3605291056292 1213.8998004736059) rotate(0 200.12240600585938 12.972817212125165)"><text x="200.12240600585938" y="0" font-family="Helvetica, Segoe UI Emoji" font-size="22.561421238478466px" fill="#1e1e1e" text-anchor="middle" style="white-space: pre;" direction="ltr" dominant-baseline="text-before-edge">Н_ОЦЕНКИ.ПРИМЕЧАНИЕ &gt; 'неявка'</text></g><g stroke-linecap="round"><g transform="translate(542.4875018137327 560.1331851839743) rotate(0 0 -72.70661638254597)"><path d="M0 0 C0 -24.24, 0 -121.18, 0 -145.41 M0 0 C0 -24.24, 0 -121.18, 0 -145.41" stroke="#e03131" stroke-width="4" fill="none"></path></g></g><mask></mask><g transform="translate(513.5993710974881 295.5551651852469) rotate(0 28.888130716244632 55.928197162798995)"><text x="28.888130716244415" y="0" font-family="Helvetica, Segoe UI Emoji" font-size="97.26642984834608px" fill="#1e1e1e" text-anchor="middle" style="white-space: pre;" direction="ltr" dominant-baseline="text-before-edge">𝛑</text></g><g transform="translate(577.4020985079869 377.5115964125753) rotate(0 272.49407958984375 12.972817212125108)"><text x="272.49407958984375" y="0" font-family="Helvetica, Segoe UI Emoji" font-size="22.561421238478466px" fill="#1e1e1e" text-anchor="middle" style="white-space: pre;" direction="ltr" dominant-baseline="text-before-edge">Н_ОЦЕНКИ.ПРИМЕЧАНИЕ, Н_ВЕДОМОСТИ.ДАТА</text></g><g stroke-linecap="round"><g transform="translate(541.2119471403548 305.0222505083748) rotate(0 0 -72.70661638254597)"><path d="M0 0 C0 -24.24, 0 -121.18, 0 -145.41 M0 0 C0 -24.24, 0 -121.18, 0 -145.41" stroke="#e03131" stroke-width="4" fill="none"></path></g></g><mask></mask><g transform="translate(473.36232865004513 101.1914136319092) rotate(0 87.3544921875 20.69999999999999)"><text x="87.3544921875" y="0" font-family="Helvetica, Segoe UI Emoji" font-size="36px" fill="#1e1e1e" text-anchor="middle" style="white-space: pre;" direction="ltr" dominant-baseline="text-before-edge">Результат</text></g><g transform="translate(495.4672813114694 1416.0330207089614) rotate(0 36.66138082286852 54.579572764867066)"><text x="36.661380822868445" y="0" font-family="Helvetica, Segoe UI Emoji" font-size="94.92099611281236px" fill="#1e1e1e" text-anchor="middle" style="white-space: pre;" direction="ltr" dominant-baseline="text-before-edge">⋈</text></g><g transform="translate(513.1439777108744 567.2101754695921) rotate(0 30.128437288170062 56.7214192654659)"><text x="30.128437288169955" y="0" font-family="Helvetica, Segoe UI Emoji" font-size="98.64594654863642px" fill="#1e1e1e" text-anchor="middle" style="white-space: pre;" direction="ltr" dominant-baseline="text-before-edge">σ</text></g><g transform="translate(566.916149574442 935.5296279473807) rotate(0 163.4711151123047 12.972817212125165)"><text x="163.4711151123047" y="0" font-family="Helvetica, Segoe UI Emoji" font-size="22.561421238478466px" fill="#1e1e1e" text-anchor="middle" style="white-space: pre;" direction="ltr" dominant-baseline="text-before-edge">Н_ВЕДОМОСТИ.ИД = 1457443</text></g><g transform="translate(508.63951194974925 848.1690193201036) rotate(0 30.128437288170062 56.7214192654659)"><text x="30.128437288169955" y="0" font-family="Helvetica, Segoe UI Emoji" font-size="98.64594654863642px" fill="#1e1e1e" text-anchor="middle" style="white-space: pre;" direction="ltr" dominant-baseline="text-before-edge">σ</text></g><g transform="translate(576.2178286480585 651.4706386601467) rotate(0 150.9235382080078 12.972817212125165)"><text x="150.9235382080078" y="0" font-family="Helvetica, Segoe UI Emoji" font-size="22.561421238478466px" fill="#1e1e1e" text-anchor="middle" style="white-space: pre;" direction="ltr" dominant-baseline="text-before-edge">Н_ВЕДОМОСТИ.ИД &gt; 39921</text></g><g stroke-linecap="round"><g transform="translate(536.1671544772989 1119.7718507563686) rotate(0 0 -72.70661638254592)"><path d="M0 0 C0 -24.24, 0 -121.18, 0 -145.41 M0 0 C0 -24.24, 0 -121.18, 0 -145.41" stroke="#e03131" stroke-width="4" fill="none"></path></g></g><mask></mask><g stroke-linecap="round"><g transform="translate(539.2672999140214 834.5584705779172) rotate(0 0 -72.70661638254592)"><path d="M0 0 C0 -24.24, 0 -121.18, 0 -145.41 M0 0 C0 -24.24, 0 -121.18, 0 -145.41" stroke="#e03131" stroke-width="4" fill="none"></path></g></g><mask></mask></svg>