<svg version="1.1" xmlns="http://www.w3.org/2000/svg" viewBox="0 0 1671.5453044069625 1823.0184207340972" width="3343.090608813925" height="3646.0368414681943">
  <!-- svg-source:excalidraw -->
  
  <defs>
    <style class="style-fonts">
      @font-face {
        font-family: "Virgil";
        src: url("https://excalidraw.com/Virgil.woff2");
      }
      @font-face {
        font-family: "Cascadia";
        src: url("https://excalidraw.com/Cascadia.woff2");
      }
      @font-face {
        font-family: "Assistant";
        src: url("https://excalidraw.com/Assistant-Regular.woff2");
      }
    </style>
    
  </defs>
  <rect x="0" y="0" width="1671.5453044069625" height="1823.0184207340972" fill="#ffffff"></rect><g stroke-linecap="round" transform="translate(10 10) rotate(0 825.7726522034812 901.5092103670486)"><path d="M32 0 C526.88 0, 1021.77 0, 1619.55 0 C1640.88 0, 1651.55 10.67, 1651.55 32 C1651.55 393.38, 1651.55 754.77, 1651.55 1771.02 C1651.55 1792.35, 1640.88 1803.02, 1619.55 1803.02 C1127.5 1803.02, 635.45 1803.02, 32 1803.02 C10.67 1803.02, 0 1792.35, 0 1771.02 C0 1177.5, 0 583.98, 0 32 C0 10.67, 10.67 0, 32 0" stroke="none" stroke-width="0" fill="#a5d8ff"></path><path d="M32 0 C613.92 0, 1195.83 0, 1619.55 0 M32 0 C504.35 0, 976.7 0, 1619.55 0 M1619.55 0 C1640.88 0, 1651.55 10.67, 1651.55 32 M1619.55 0 C1640.88 0, 1651.55 10.67, 1651.55 32 M1651.55 32 C1651.55 560.02, 1651.55 1088.05, 1651.55 1771.02 M1651.55 32 C1651.55 692.2, 1651.55 1352.39, 1651.55 1771.02 M1651.55 1771.02 C1651.55 1792.35, 1640.88 1803.02, 1619.55 1803.02 M1651.55 1771.02 C1651.55 1792.35, 1640.88 1803.02, 1619.55 1803.02 M1619.55 1803.02 C1126.05 1803.02, 632.56 1803.02, 32 1803.02 M1619.55 1803.02 C1280.1 1803.02, 940.65 1803.02, 32 1803.02 M32 1803.02 C10.67 1803.02, 0 1792.35, 0 1771.02 M32 1803.02 C10.67 1803.02, 0 1792.35, 0 1771.02 M0 1771.02 C0 1385.83, 0 1000.63, 0 32 M0 1771.02 C0 1231.91, 0 692.8, 0 32 M0 32 C0 10.67, 10.67 0, 32 0 M0 32 C0 10.67, 10.67 0, 32 0" stroke="#1e1e1e" stroke-width="4" fill="none"></path></g><g transform="translate(1002.3290442262385 1449.694966055097) rotate(0 100.1953125 20.69999999999999)"><text x="100.1953125" y="0" font-family="Helvetica, Segoe UI Emoji" font-size="36px" fill="#1e1e1e" text-anchor="middle" style="white-space: pre;" direction="ltr" dominant-baseline="text-before-edge">Н_ОЦЕНКИ</text></g><g transform="translate(52.709760459650624 1724.2202733010445) rotate(0 139.6318359375 20.700000000000045)"><text x="139.6318359375" y="0" font-family="Helvetica, Segoe UI Emoji" font-size="36px" fill="#1e1e1e" text-anchor="middle" style="white-space: pre;" direction="ltr" dominant-baseline="text-before-edge">Н_ВЕДОМОСТИ</text></g><g stroke-linecap="round"><g transform="translate(166.195010922474 1686.7830375387161) rotate(0 0 -72.70661638254592)"><path d="M0 0 C0 -24.24, 0 -121.18, 0 -145.41 M0 0 C0 -24.24, 0 -121.18, 0 -145.41" stroke="#e03131" stroke-width="4" fill="none"></path></g></g><mask></mask><g transform="translate(1060.9111724475777 1151.4352503549233) rotate(0 30.128437288170062 56.7214192654659)"><text x="30.128437288169955" y="0" font-family="Helvetica, Segoe UI Emoji" font-size="98.64594654863642px" fill="#1e1e1e" text-anchor="middle" style="white-space: pre;" direction="ltr" dominant-baseline="text-before-edge">σ</text></g><g transform="translate(1124.388482574466 1234.145640827117) rotate(0 200.12240600585938 12.972817212125108)"><text x="200.12240600585938" y="0" font-family="Helvetica, Segoe UI Emoji" font-size="22.561421238478466px" fill="#1e1e1e" text-anchor="middle" style="white-space: pre;" direction="ltr" dominant-baseline="text-before-edge">Н_ОЦЕНКИ.ПРИМЕЧАНИЕ &gt; 'неявка'</text></g><g transform="translate(136.534386747197 1416.4427731857236) rotate(0 30.12843728816995 56.7214192654659)"><text x="30.128437288169955" y="0" font-family="Helvetica, Segoe UI Emoji" font-size="98.64594654863642px" fill="#1e1e1e" text-anchor="middle" style="white-space: pre;" direction="ltr" dominant-baseline="text-before-edge">σ</text></g><g transform="translate(196.3610970902514 1221.6901470712717) rotate(0 163.4711151123047 12.972817212125108)"><text x="163.4711151123047" y="0" font-family="Helvetica, Segoe UI Emoji" font-size="22.561421238478466px" fill="#1e1e1e" text-anchor="middle" style="white-space: pre;" direction="ltr" dominant-baseline="text-before-edge">Н_ВЕДОМОСТИ.ИД = 1457443</text></g><g transform="translate(138.08445946555867 1134.3295384439944) rotate(0 30.12843728816995 56.7214192654659)"><text x="30.128437288169955" y="0" font-family="Helvetica, Segoe UI Emoji" font-size="98.64594654863642px" fill="#1e1e1e" text-anchor="middle" style="white-space: pre;" direction="ltr" dominant-baseline="text-before-edge">σ</text></g><g transform="translate(199.60823768438104 1500.7032363762785) rotate(0 150.9235382080078 12.972817212125165)"><text x="150.9235382080078" y="0" font-family="Helvetica, Segoe UI Emoji" font-size="22.561421238478466px" fill="#1e1e1e" text-anchor="middle" style="white-space: pre;" direction="ltr" dominant-baseline="text-before-edge">Н_ВЕДОМОСТИ.ИД &gt; 39921</text></g><g stroke-linecap="round"><g transform="translate(164.6758884435062 1403.2641187445097) rotate(0 0 -72.70661638254597)"><path d="M0 0 C0 -24.24, 0 -121.18, 0 -145.41 M0 0 C0 -24.24, 0 -121.18, 0 -145.41" stroke="#e03131" stroke-width="4" fill="none"></path></g></g><mask></mask><g stroke-linecap="round"><g transform="translate(1090.3913681882502 1426.395593654987) rotate(0 0 -72.70661638254597)"><path d="M0 0 C0 -24.24, 0 -121.18, 0 -145.41 M0 0 C0 -24.24, 0 -121.18, 0 -145.41" stroke="#e03131" stroke-width="4" fill="none"></path></g></g><mask></mask><g stroke-linecap="round"><g transform="translate(168.1710179157849 1136.377769234691) rotate(0 0 -72.70661638254597)"><path d="M0 0 C0 -24.24, 0 -121.18, 0 -145.41 M0 0 C0 -24.24, 0 -121.18, 0 -145.41" stroke="#e03131" stroke-width="4" fill="none"></path></g></g><mask></mask><g transform="translate(141.59676686137254 854.2798209278271) rotate(0 28.888130716244405 55.928197162798995)"><text x="28.888130716244415" y="0" font-family="Helvetica, Segoe UI Emoji" font-size="97.26642984834608px" fill="#1e1e1e" text-anchor="middle" style="white-space: pre;" direction="ltr" dominant-baseline="text-before-edge">𝛑</text></g><g transform="translate(212.3617745453089 936.2362521551554) rotate(0 265.53179931640625 12.972817212125108)"><text x="265.53179931640625" y="0" font-family="Helvetica, Segoe UI Emoji" font-size="22.561421238478466px" fill="#1e1e1e" text-anchor="middle" style="white-space: pre;" direction="ltr" dominant-baseline="text-before-edge">Н_ВЕДОМОСТИ.ОЦЕНКА, Н_ВЕДОМОСТИ.ДАТА</text></g><g stroke-linecap="round"><g transform="translate(1091.3031079192958 1156.9095361670613) rotate(0 0 -72.70661638254597)"><path d="M0 0 C0 -24.24, 0 -121.18, 0 -145.41 M0 0 C0 -24.24, 0 -121.18, 0 -145.41" stroke="#e03131" stroke-width="4" fill="none"></path></g></g><mask></mask><g transform="translate(1062.687133620541 882.5583196103516) rotate(0 28.888130716244405 55.928197162798995)"><text x="28.888130716244415" y="0" font-family="Helvetica, Segoe UI Emoji" font-size="97.26642984834608px" fill="#1e1e1e" text-anchor="middle" style="white-space: pre;" direction="ltr" dominant-baseline="text-before-edge">𝛑</text></g><g transform="translate(1129.1329276581098 963.0428679789793) rotate(0 241.88523864746094 12.972817212125108)"><text x="241.88523864746094" y="0" font-family="Helvetica, Segoe UI Emoji" font-size="22.561421238478466px" fill="#1e1e1e" text-anchor="middle" style="white-space: pre;" direction="ltr" dominant-baseline="text-before-edge">Н_ОЦЕНКИ.КОД, Н_ОЦЕНКИ.ПРИМЕЧАНИЕ</text></g><g transform="translate(683.5967637787458 606.6581648562029) rotate(0 241.51069641113293 12.972817212125122)"><text x="241.5106964111328" y="0" font-family="Helvetica, Segoe UI Emoji" font-size="22.561421238478466px" fill="#1e1e1e" text-anchor="middle" style="white-space: pre;" direction="ltr" dominant-baseline="text-before-edge">Н_ВЕДОМОСТИ.ОЦЕНКА = Н_ОЦЕНКИ.КОД</text></g><g transform="translate(603.9440097918828 522.866424345717) rotate(0 36.66138082286841 54.579572764867095)"><text x="36.661380822868445" y="0" font-family="Helvetica, Segoe UI Emoji" font-size="94.92099611281236px" fill="#1e1e1e" text-anchor="middle" style="white-space: pre;" direction="ltr" dominant-baseline="text-before-edge">⋈</text></g><g stroke-linecap="round"><g transform="translate(211.70023373984668 873.0053814540225) rotate(0 196.33504805682423 -116.15735042786733)"><path d="M0 0 C65.45 -38.72, 327.23 -193.6, 392.67 -232.31 M0 0 C65.45 -38.72, 327.23 -193.6, 392.67 -232.31" stroke="#e03131" stroke-width="4" fill="none"></path></g></g><mask></mask><g stroke-linecap="round"><g transform="translate(685.7280864519394 642.6246676875911) rotate(0 179.9707775195335 122.13503528854196)"><path d="M0 0 C59.99 40.71, 299.95 203.56, 359.94 244.27 M0 0 C59.99 40.71, 299.95 203.56, 359.94 244.27" stroke="#e03131" stroke-width="4" fill="none"></path></g></g><mask></mask><g stroke-linecap="round"><g transform="translate(646.2901844290427 513.6712859688956) rotate(0 0 -72.70661638254596)"><path d="M0 0 C0 -24.24, 0 -121.18, 0 -145.41 M0 0 C0 -24.24, 0 -121.18, 0 -145.41" stroke="#e03131" stroke-width="4" fill="none"></path></g></g><mask></mask><g transform="translate(617.4020537127981 249.09326597016855) rotate(0 28.888130716244405 55.92819716279899)"><text x="28.888130716244415" y="0" font-family="Helvetica, Segoe UI Emoji" font-size="97.26642984834608px" fill="#1e1e1e" text-anchor="middle" style="white-space: pre;" direction="ltr" dominant-baseline="text-before-edge">𝛑</text></g><g transform="translate(681.2047811232969 331.0496971974968) rotate(0 272.49407958984364 12.972817212125115)"><text x="272.49407958984375" y="0" font-family="Helvetica, Segoe UI Emoji" font-size="22.561421238478466px" fill="#1e1e1e" text-anchor="middle" style="white-space: pre;" direction="ltr" dominant-baseline="text-before-edge">Н_ОЦЕНКИ.ПРИМЕЧАНИЕ, Н_ВЕДОМОСТИ.ДАТА</text></g><g stroke-linecap="round"><g transform="translate(645.0146297556648 258.5603512932963) rotate(0 0 -72.70661638254597)"><path d="M0 0 C0 -24.24, 0 -121.18, 0 -145.41 M0 0 C0 -24.24, 0 -121.18, 0 -145.41" stroke="#e03131" stroke-width="4" fill="none"></path></g></g><mask></mask><g transform="translate(577.1650112653551 54.72951441683074) rotate(0 87.3544921875 20.69999999999999)"><text x="87.3544921875" y="0" font-family="Helvetica, Segoe UI Emoji" font-size="36px" fill="#1e1e1e" text-anchor="middle" style="white-space: pre;" direction="ltr" dominant-baseline="text-before-edge">Результат</text></g></svg>