<svg version="1.1" xmlns="http://www.w3.org/2000/svg" viewBox="0 0 1247.9288458141655 1509.4322111264419" width="2495.857691628331" height="3018.8644222528837">
  <!-- svg-source:excalidraw -->
  
  <defs>
    <style class="style-fonts">
      @font-face {
        font-family: "Virgil";
        src: url("https://excalidraw.com/Virgil.woff2");
      }
      @font-face {
        font-family: "Cascadia";
        src: url("https://excalidraw.com/Cascadia.woff2");
      }
      @font-face {
        font-family: "Assistant";
        src: url("https://excalidraw.com/Assistant-Regular.woff2");
      }
    </style>
    
  </defs>
  <rect x="0" y="0" width="1247.9288458141655" height="1509.4322111264419" fill="#ffffff"></rect><g stroke-linecap="round" transform="translate(10 10) rotate(0 613.9644229070827 744.7161055632209)"><path d="M32 0 C321.84 0, 611.67 0, 1195.93 0 C1217.26 0, 1227.93 10.67, 1227.93 32 C1227.93 341.84, 1227.93 651.67, 1227.93 1457.43 C1227.93 1478.77, 1217.26 1489.43, 1195.93 1489.43 C744.38 1489.43, 292.82 1489.43, 32 1489.43 C10.67 1489.43, 0 1478.77, 0 1457.43 C0 1147.46, 0 837.49, 0 32 C0 10.67, 10.67 0, 32 0" stroke="none" stroke-width="0" fill="#a5d8ff"></path><path d="M32 0 C373.26 0, 714.51 0, 1195.93 0 M32 0 C420.21 0, 808.42 0, 1195.93 0 M1195.93 0 C1217.26 0, 1227.93 10.67, 1227.93 32 M1195.93 0 C1217.26 0, 1227.93 10.67, 1227.93 32 M1227.93 32 C1227.93 475.47, 1227.93 918.94, 1227.93 1457.43 M1227.93 32 C1227.93 418.61, 1227.93 805.22, 1227.93 1457.43 M1227.93 1457.43 C1227.93 1478.77, 1217.26 1489.43, 1195.93 1489.43 M1227.93 1457.43 C1227.93 1478.77, 1217.26 1489.43, 1195.93 1489.43 M1195.93 1489.43 C818.81 1489.43, 441.69 1489.43, 32 1489.43 M1195.93 1489.43 C861.61 1489.43, 527.3 1489.43, 32 1489.43 M32 1489.43 C10.67 1489.43, 0 1478.77, 0 1457.43 M32 1489.43 C10.67 1489.43, 0 1478.77, 0 1457.43 M0 1457.43 C0 1023.5, 0 589.57, 0 32 M0 1457.43 C0 1066.73, 0 676.02, 0 32 M0 32 C0 10.67, 10.67 0, 32 0 M0 32 C0 10.67, 10.67 0, 32 0" stroke="#1e1e1e" stroke-width="4" fill="none"></path></g><g transform="translate(677.6905603577252 1107.2262337744405) rotate(0 100.1953125 20.700000000000045)"><text x="100.1953125" y="0" font-family="Helvetica, Segoe UI Emoji" font-size="36px" fill="#1e1e1e" text-anchor="middle" style="white-space: pre;" direction="ltr" dominant-baseline="text-before-edge">Н_ОЦЕНКИ</text></g><g transform="translate(74.68628786284353 1389.6892893701215) rotate(0 139.6318359375 20.700000000000045)"><text x="139.6318359375" y="0" font-family="Helvetica, Segoe UI Emoji" font-size="36px" fill="#1e1e1e" text-anchor="middle" style="white-space: pre;" direction="ltr" dominant-baseline="text-before-edge">Н_ВЕДОМОСТИ</text></g><g transform="translate(525.2530084935952 605.6478927192899) rotate(0 241.5106964111328 12.972817212125165)"><text x="241.5106964111328" y="0" font-family="Helvetica, Segoe UI Emoji" font-size="22.561421238478466px" fill="#1e1e1e" text-anchor="middle" style="white-space: pre;" direction="ltr" dominant-baseline="text-before-edge">Н_ВЕДОМОСТИ.ОЦЕНКА = Н_ОЦЕНКИ.КОД</text></g><g transform="translate(445.6002545067331 521.8561522088038) rotate(0 36.66138082286852 54.579572764867066)"><text x="36.661380822868445" y="0" font-family="Helvetica, Segoe UI Emoji" font-size="94.92099611281236px" fill="#1e1e1e" text-anchor="middle" style="white-space: pre;" direction="ltr" dominant-baseline="text-before-edge">⋈</text></g><g stroke-linecap="round"><g transform="translate(188.171538325666 1352.2520536077936) rotate(0 0 -72.70661638254592)"><path d="M0 0 C0 -24.24, 0 -121.18, 0 -145.41 M0 0 C0 -24.24, 0 -121.18, 0 -145.41" stroke="#e03131" stroke-width="4" fill="none"></path></g></g><mask></mask><g transform="translate(736.2726885790635 808.9665180742667) rotate(0 30.128437288170062 56.7214192654659)"><text x="30.128437288169955" y="0" font-family="Helvetica, Segoe UI Emoji" font-size="98.64594654863642px" fill="#1e1e1e" text-anchor="middle" style="white-space: pre;" direction="ltr" dominant-baseline="text-before-edge">σ</text></g><g transform="translate(799.7499987059518 891.6769085464601) rotate(0 200.12240600585938 12.972817212125165)"><text x="200.12240600585938" y="0" font-family="Helvetica, Segoe UI Emoji" font-size="22.561421238478466px" fill="#1e1e1e" text-anchor="middle" style="white-space: pre;" direction="ltr" dominant-baseline="text-before-edge">Н_ОЦЕНКИ.ПРИМЕЧАНИЕ &gt; 'неявка'</text></g><g transform="translate(161.45707871044306 796.1338269296613) rotate(0 30.128437288170062 56.7214192654659)"><text x="30.128437288169955" y="0" font-family="Helvetica, Segoe UI Emoji" font-size="98.64594654863642px" fill="#1e1e1e" text-anchor="middle" style="white-space: pre;" direction="ltr" dominant-baseline="text-before-edge">σ</text></g><g transform="translate(221.28378905349746 1167.044796345382) rotate(0 163.4711151123047 12.972817212125165)"><text x="163.4711151123047" y="0" font-family="Helvetica, Segoe UI Emoji" font-size="22.561421238478466px" fill="#1e1e1e" text-anchor="middle" style="white-space: pre;" direction="ltr" dominant-baseline="text-before-edge">Н_ВЕДОМОСТИ.ИД = 1457443</text></g><g transform="translate(163.00715142880472 1079.6841877181046) rotate(0 30.128437288170062 56.7214192654659)"><text x="30.128437288169955" y="0" font-family="Helvetica, Segoe UI Emoji" font-size="98.64594654863642px" fill="#1e1e1e" text-anchor="middle" style="white-space: pre;" direction="ltr" dominant-baseline="text-before-edge">σ</text></g><g transform="translate(224.5309296476271 880.3942901202164) rotate(0 150.9235382080078 12.972817212125165)"><text x="150.9235382080078" y="0" font-family="Helvetica, Segoe UI Emoji" font-size="22.561421238478466px" fill="#1e1e1e" text-anchor="middle" style="white-space: pre;" direction="ltr" dominant-baseline="text-before-edge">Н_ВЕДОМОСТИ.ИД &gt; 39921</text></g><g stroke-linecap="round"><g transform="translate(186.65241584669866 1068.7331348135867) rotate(0 0 -72.70661638254592)"><path d="M0 0 C0 -24.24, 0 -121.18, 0 -145.41 M0 0 C0 -24.24, 0 -121.18, 0 -145.41" stroke="#e03131" stroke-width="4" fill="none"></path></g></g><mask></mask><g stroke-linecap="round"><g transform="translate(216.8332327729595 786.9871970716125) rotate(0 114.59667089769255 -73.65339430511881)"><path d="M0 0 C38.2 -24.55, 190.99 -122.76, 229.19 -147.31 M0 0 C38.2 -24.55, 190.99 -122.76, 229.19 -147.31" stroke="#e03131" stroke-width="4" fill="none"></path></g></g><mask></mask><g stroke-linecap="round"><g transform="translate(527.3843311667897 641.6143955506781) rotate(0 117.8496108785937 78.54123413700506)"><path d="M0 0 C39.28 26.18, 196.42 130.9, 235.7 157.08 M0 0 C39.28 26.18, 196.42 130.9, 235.7 157.08" stroke="#e03131" stroke-width="4" fill="none"></path></g></g><mask></mask><g stroke-linecap="round"><g transform="translate(483.0767852798508 524.3993040428846) rotate(0 0 -72.70661638254597)"><path d="M0 0 C0 -24.24, 0 -121.18, 0 -145.41 M0 0 C0 -24.24, 0 -121.18, 0 -145.41" stroke="#e03131" stroke-width="4" fill="none"></path></g></g><mask></mask><g transform="translate(454.1886545636062 259.8212840441573) rotate(0 28.888130716244405 55.928197162798995)"><text x="28.888130716244415" y="0" font-family="Helvetica, Segoe UI Emoji" font-size="97.26642984834608px" fill="#1e1e1e" text-anchor="middle" style="white-space: pre;" direction="ltr" dominant-baseline="text-before-edge">𝛑</text></g><g transform="translate(517.9913819741041 341.7777152714856) rotate(0 272.49407958984375 12.972817212125108)"><text x="272.49407958984375" y="0" font-family="Helvetica, Segoe UI Emoji" font-size="22.561421238478466px" fill="#1e1e1e" text-anchor="middle" style="white-space: pre;" direction="ltr" dominant-baseline="text-before-edge">Н_ОЦЕНКИ.ПРИМЕЧАНИЕ, Н_ВЕДОМОСТИ.ДАТА</text></g><g stroke-linecap="round"><g transform="translate(481.8012306064729 269.2883693672851) rotate(0 0 -72.70661638254597)"><path d="M0 0 C0 -24.24, 0 -121.18, 0 -145.41 M0 0 C0 -24.24, 0 -121.18, 0 -145.41" stroke="#e03131" stroke-width="4" fill="none"></path></g></g><mask></mask><g transform="translate(413.95161211616323 65.45753249081952) rotate(0 87.3544921875 20.69999999999999)"><text x="87.3544921875" y="0" font-family="Helvetica, Segoe UI Emoji" font-size="36px" fill="#1e1e1e" text-anchor="middle" style="white-space: pre;" direction="ltr" dominant-baseline="text-before-edge">Результат</text></g><g stroke-linecap="round"><g transform="translate(765.752884319736 1083.9268613743307) rotate(0 0 -72.70661638254592)"><path d="M0 0 C0 -24.24, 0 -121.18, 0 -145.41 M0 0 C0 -24.24, 0 -121.18, 0 -145.41" stroke="#e03131" stroke-width="4" fill="none"></path></g></g><mask></mask></svg>