<svg version="1.1" xmlns="http://www.w3.org/2000/svg" viewBox="0 0 1247.928845814166 1509.4322111264419" width="2495.857691628332" height="3018.8644222528837">
  <!-- svg-source:excalidraw -->
  
  <defs>
    <style class="style-fonts">
      @font-face {
        font-family: "Virgil";
        src: url("https://excalidraw.com/Virgil.woff2");
      }
      @font-face {
        font-family: "Cascadia";
        src: url("https://excalidraw.com/Cascadia.woff2");
      }
      @font-face {
        font-family: "Assistant";
        src: url("https://excalidraw.com/Assistant-Regular.woff2");
      }
    </style>
    
  </defs>
  <rect x="0" y="0" width="1247.928845814166" height="1509.4322111264419" fill="#ffffff"></rect><g stroke-linecap="round" transform="translate(10 10) rotate(0 613.964422907083 744.7161055632209)"><path d="M32 0 C447.09 0, 862.18 0, 1195.93 0 C1217.26 0, 1227.93 10.67, 1227.93 32 C1227.93 444.22, 1227.93 856.44, 1227.93 1457.43 C1227.93 1478.77, 1217.26 1489.43, 1195.93 1489.43 C834.77 1489.43, 473.62 1489.43, 32 1489.43 C10.67 1489.43, 0 1478.77, 0 1457.43 C0 906.03, 0 354.63, 0 32 C0 10.67, 10.67 0, 32 0" stroke="none" stroke-width="0" fill="#a5d8ff"></path><path d="M32 0 C287.61 0, 543.22 0, 1195.93 0 M32 0 C465.78 0, 899.56 0, 1195.93 0 M1195.93 0 C1217.26 0, 1227.93 10.67, 1227.93 32 M1195.93 0 C1217.26 0, 1227.93 10.67, 1227.93 32 M1227.93 32 C1227.93 476.9, 1227.93 921.79, 1227.93 1457.43 M1227.93 32 C1227.93 586.11, 1227.93 1140.23, 1227.93 1457.43 M1227.93 1457.43 C1227.93 1478.77, 1217.26 1489.43, 1195.93 1489.43 M1227.93 1457.43 C1227.93 1478.77, 1217.26 1489.43, 1195.93 1489.43 M1195.93 1489.43 C946.94 1489.43, 697.95 1489.43, 32 1489.43 M1195.93 1489.43 C793.54 1489.43, 391.14 1489.43, 32 1489.43 M32 1489.43 C10.67 1489.43, 0 1478.77, 0 1457.43 M32 1489.43 C10.67 1489.43, 0 1478.77, 0 1457.43 M0 1457.43 C0 989.82, 0 522.2, 0 32 M0 1457.43 C0 1146.38, 0 835.32, 0 32 M0 32 C0 10.67, 10.67 0, 32 0 M0 32 C0 10.67, 10.67 0, 32 0" stroke="#1e1e1e" stroke-width="4" fill="none"></path></g><g transform="translate(677.6905603577247 1107.2262337744403) rotate(0 100.1953125 20.69999999999999)"><text x="100.1953125" y="0" font-family="Helvetica, Segoe UI Emoji" font-size="36px" fill="#1e1e1e" text-anchor="middle" style="white-space: pre;" direction="ltr" dominant-baseline="text-before-edge">Н_ОЦЕНКИ</text></g><g transform="translate(74.6862878628433 1389.6892893701215) rotate(0 139.6318359375 20.700000000000045)"><text x="139.6318359375" y="0" font-family="Helvetica, Segoe UI Emoji" font-size="36px" fill="#1e1e1e" text-anchor="middle" style="white-space: pre;" direction="ltr" dominant-baseline="text-before-edge">Н_ВЕДОМОСТИ</text></g><g transform="translate(525.2530084935954 605.6478927192899) rotate(0 241.51069641113293 12.972817212125108)"><text x="241.5106964111328" y="0" font-family="Helvetica, Segoe UI Emoji" font-size="22.561421238478466px" fill="#1e1e1e" text-anchor="middle" style="white-space: pre;" direction="ltr" dominant-baseline="text-before-edge">Н_ВЕДОМОСТИ.ОЦЕНКА = Н_ОЦЕНКИ.КОД</text></g><g transform="translate(445.6002545067329 521.8561522088039) rotate(0 36.66138082286841 54.579572764867095)"><text x="36.661380822868445" y="0" font-family="Helvetica, Segoe UI Emoji" font-size="94.92099611281236px" fill="#1e1e1e" text-anchor="middle" style="white-space: pre;" direction="ltr" dominant-baseline="text-before-edge">⋈</text></g><g stroke-linecap="round"><g transform="translate(188.17153832566578 1352.2520536077936) rotate(0 0 -72.70661638254597)"><path d="M0 0 C0 -24.24, 0 -121.18, 0 -145.41 M0 0 C0 -24.24, 0 -121.18, 0 -145.41" stroke="#e03131" stroke-width="4" fill="none"></path></g></g><mask></mask><g transform="translate(736.2726885790639 808.9665180742667) rotate(0 30.128437288170062 56.7214192654659)"><text x="30.128437288169955" y="0" font-family="Helvetica, Segoe UI Emoji" font-size="98.64594654863642px" fill="#1e1e1e" text-anchor="middle" style="white-space: pre;" direction="ltr" dominant-baseline="text-before-edge">σ</text></g><g transform="translate(799.7499987059523 891.6769085464603) rotate(0 200.12240600585938 12.972817212125108)"><text x="200.12240600585938" y="0" font-family="Helvetica, Segoe UI Emoji" font-size="22.561421238478466px" fill="#1e1e1e" text-anchor="middle" style="white-space: pre;" direction="ltr" dominant-baseline="text-before-edge">Н_ОЦЕНКИ.ПРИМЕЧАНИЕ &gt; 'неявка'</text></g><g transform="translate(158.51091415038945 1081.9117892548006) rotate(0 30.12843728816995 56.7214192654659)"><text x="30.128437288169955" y="0" font-family="Helvetica, Segoe UI Emoji" font-size="98.64594654863642px" fill="#1e1e1e" text-anchor="middle" style="white-space: pre;" direction="ltr" dominant-baseline="text-before-edge">σ</text></g><g transform="translate(218.3376244934434 887.1591631403487) rotate(0 163.4711151123047 12.972817212125108)"><text x="163.4711151123047" y="0" font-family="Helvetica, Segoe UI Emoji" font-size="22.561421238478466px" fill="#1e1e1e" text-anchor="middle" style="white-space: pre;" direction="ltr" dominant-baseline="text-before-edge">Н_ВЕДОМОСТИ.ИД = 1457443</text></g><g transform="translate(160.06098686875066 799.7985545130715) rotate(0 30.12843728816995 56.7214192654659)"><text x="30.128437288169955" y="0" font-family="Helvetica, Segoe UI Emoji" font-size="98.64594654863642px" fill="#1e1e1e" text-anchor="middle" style="white-space: pre;" direction="ltr" dominant-baseline="text-before-edge">σ</text></g><g transform="translate(221.5847650875735 1166.1722524453555) rotate(0 150.9235382080078 12.972817212125108)"><text x="150.9235382080078" y="0" font-family="Helvetica, Segoe UI Emoji" font-size="22.561421238478466px" fill="#1e1e1e" text-anchor="middle" style="white-space: pre;" direction="ltr" dominant-baseline="text-before-edge">Н_ВЕДОМОСТИ.ИД &gt; 39921</text></g><g stroke-linecap="round"><g transform="translate(186.65241584669866 1068.7331348135867) rotate(0 0 -72.70661638254597)"><path d="M0 0 C0 -24.24, 0 -121.18, 0 -145.41 M0 0 C0 -24.24, 0 -121.18, 0 -145.41" stroke="#e03131" stroke-width="4" fill="none"></path></g></g><mask></mask><g stroke-linecap="round"><g transform="translate(216.8332327729595 786.9871970716124) rotate(0 114.59667089769255 -73.65339430511884)"><path d="M0 0 C38.2 -24.55, 190.99 -122.76, 229.19 -147.31 M0 0 C38.2 -24.55, 190.99 -122.76, 229.19 -147.31" stroke="#e03131" stroke-width="4" fill="none"></path></g></g><mask></mask><g stroke-linecap="round"><g transform="translate(527.3843311667895 641.6143955506782) rotate(0 117.84961087859381 78.54123413700503)"><path d="M0 0 C39.28 26.18, 196.42 130.9, 235.7 157.08 M0 0 C39.28 26.18, 196.42 130.9, 235.7 157.08" stroke="#e03131" stroke-width="4" fill="none"></path></g></g><mask></mask><g stroke-linecap="round"><g transform="translate(483.07678527985104 524.3993040428846) rotate(0 0 -72.70661638254596)"><path d="M0 0 C0 -24.24, 0 -121.18, 0 -145.41 M0 0 C0 -24.24, 0 -121.18, 0 -145.41" stroke="#e03131" stroke-width="4" fill="none"></path></g></g><mask></mask><g transform="translate(454.1886545636064 259.8212840441573) rotate(0 28.888130716244405 55.92819716279899)"><text x="28.888130716244415" y="0" font-family="Helvetica, Segoe UI Emoji" font-size="97.26642984834608px" fill="#1e1e1e" text-anchor="middle" style="white-space: pre;" direction="ltr" dominant-baseline="text-before-edge">𝛑</text></g><g transform="translate(517.9913819741043 341.7777152714856) rotate(0 272.49407958984386 12.972817212125115)"><text x="272.49407958984375" y="0" font-family="Helvetica, Segoe UI Emoji" font-size="22.561421238478466px" fill="#1e1e1e" text-anchor="middle" style="white-space: pre;" direction="ltr" dominant-baseline="text-before-edge">Н_ОЦЕНКИ.ПРИМЕЧАНИЕ, Н_ВЕДОМОСТИ.ДАТА</text></g><g stroke-linecap="round"><g transform="translate(481.8012306064727 269.2883693672851) rotate(0 0 -72.70661638254596)"><path d="M0 0 C0 -24.24, 0 -121.18, 0 -145.41 M0 0 C0 -24.24, 0 -121.18, 0 -145.41" stroke="#e03131" stroke-width="4" fill="none"></path></g></g><mask></mask><g transform="translate(413.95161211616346 65.45753249081952) rotate(0 87.3544921875 20.700000000000003)"><text x="87.3544921875" y="0" font-family="Helvetica, Segoe UI Emoji" font-size="36px" fill="#1e1e1e" text-anchor="middle" style="white-space: pre;" direction="ltr" dominant-baseline="text-before-edge">Результат</text></g><g stroke-linecap="round"><g transform="translate(765.7528843197365 1083.9268613743304) rotate(0 0 -72.70661638254597)"><path d="M0 0 C0 -24.24, 0 -121.18, 0 -145.41 M0 0 C0 -24.24, 0 -121.18, 0 -145.41" stroke="#e03131" stroke-width="4" fill="none"></path></g></g><mask></mask></svg>