<svg version="1.1" xmlns="http://www.w3.org/2000/svg" viewBox="0 0 1770.7487988102366 1934.6223519377804" width="3541.4975976204732" height="3869.244703875561">
  <!-- svg-source:excalidraw -->
  
  <defs>
    <style class="style-fonts">
      @font-face {
        font-family: "Virgil";
        src: url("https://excalidraw.com/Virgil.woff2");
      }
      @font-face {
        font-family: "Cascadia";
        src: url("https://excalidraw.com/Cascadia.woff2");
      }
      @font-face {
        font-family: "Assistant";
        src: url("https://excalidraw.com/Assistant-Regular.woff2");
      }
    </style>
    
  </defs>
  <rect x="0" y="0" width="1770.7487988102366" height="1934.6223519377804" fill="#ffffff"></rect><g stroke-linecap="round" transform="translate(10 10) rotate(0 875.3743994051183 957.3111759688902)"><path d="M32 0 C686.87 0, 1341.73 0, 1718.75 0 C1740.08 0, 1750.75 10.67, 1750.75 32 C1750.75 486.05, 1750.75 940.11, 1750.75 1882.62 C1750.75 1903.96, 1740.08 1914.62, 1718.75 1914.62 C1153.88 1914.62, 589.02 1914.62, 32 1914.62 C10.67 1914.62, 0 1903.96, 0 1882.62 C0 1446.77, 0 1010.91, 0 32 C0 10.67, 10.67 0, 32 0" stroke="none" stroke-width="0" fill="#a5d8ff"></path><path d="M32 0 C486.29 0, 940.58 0, 1718.75 0 M32 0 C429.39 0, 826.78 0, 1718.75 0 M1718.75 0 C1740.08 0, 1750.75 10.67, 1750.75 32 M1718.75 0 C1740.08 0, 1750.75 10.67, 1750.75 32 M1750.75 32 C1750.75 403.01, 1750.75 774.02, 1750.75 1882.62 M1750.75 32 C1750.75 506.62, 1750.75 981.24, 1750.75 1882.62 M1750.75 1882.62 C1750.75 1903.96, 1740.08 1914.62, 1718.75 1914.62 M1750.75 1882.62 C1750.75 1903.96, 1740.08 1914.62, 1718.75 1914.62 M1718.75 1914.62 C1161.37 1914.62, 603.98 1914.62, 32 1914.62 M1718.75 1914.62 C1122.29 1914.62, 525.83 1914.62, 32 1914.62 M32 1914.62 C10.67 1914.62, 0 1903.96, 0 1882.62 M32 1914.62 C10.67 1914.62, 0 1903.96, 0 1882.62 M0 1882.62 C0 1348.33, 0 814.03, 0 32 M0 1882.62 C0 1185.45, 0 488.29, 0 32 M0 32 C0 10.67, 10.67 0, 32 0 M0 32 C0 10.67, 10.67 0, 32 0" stroke="#1e1e1e" stroke-width="4" fill="none"></path></g><g transform="translate(1425.499075634456 1474.7891968788435) rotate(0 78.9873046875 20.69999999999999)"><text x="78.9873046875" y="0" font-family="Helvetica, Segoe UI Emoji" font-size="36px" fill="#1e1e1e" text-anchor="middle" style="white-space: pre;" direction="ltr" dominant-baseline="text-before-edge">Н_ЛЮДИ</text></g><g transform="translate(942.0821048807952 1808.360932584586) rotate(0 123.52148437499977 20.700000000000045)"><text x="123.521484375" y="0" font-family="Helvetica, Segoe UI Emoji" font-size="36px" fill="#1e1e1e" text-anchor="middle" style="white-space: pre;" direction="ltr" dominant-baseline="text-before-edge">Н_ОБУЧЕНИЯ</text></g><g transform="translate(91.13213404181624 1800.8698886377092) rotate(0 109.7490234375 20.700000000000045)"><text x="109.7490234375" y="0" font-family="Helvetica, Segoe UI Emoji" font-size="36px" fill="#1e1e1e" text-anchor="middle" style="white-space: pre;" direction="ltr" dominant-baseline="text-before-edge">Н_УЧЕНИКИ</text></g><g transform="translate(601.1329137109515 1428.3468851932976) rotate(0 36.66138082286852 54.57957276486712)"><text x="36.661380822868445" y="0" font-family="Helvetica, Segoe UI Emoji" font-size="94.92099611281236px" fill="#1e1e1e" text-anchor="middle" style="white-space: pre;" direction="ltr" dominant-baseline="text-before-edge">⋈</text></g><g transform="translate(1047.0344615476442 1084.0758324581518) rotate(0 36.66138082286852 54.579572764867066)"><text x="36.661380822868445" y="0" font-family="Helvetica, Segoe UI Emoji" font-size="94.92099611281236px" fill="#1e1e1e" text-anchor="middle" style="white-space: pre;" direction="ltr" dominant-baseline="text-before-edge">⋈</text></g><g transform="translate(1054.4459324278478 806.1863187886247) rotate(0 30.128437288170062 56.7214192654659)"><text x="30.128437288169955" y="0" font-family="Helvetica, Segoe UI Emoji" font-size="98.64594654863642px" fill="#1e1e1e" text-anchor="middle" style="white-space: pre;" direction="ltr" dominant-baseline="text-before-edge">σ</text></g><g transform="translate(1053.8651788962352 536.8994604086436) rotate(0 30.128437288170062 56.7214192654659)"><text x="30.128437288169955" y="0" font-family="Helvetica, Segoe UI Emoji" font-size="98.64594654863642px" fill="#1e1e1e" text-anchor="middle" style="white-space: pre;" direction="ltr" dominant-baseline="text-before-edge">σ</text></g><g transform="translate(1054.3992892800516 267.4357753434037) rotate(0 28.888130716244632 55.92819716279899)"><text x="28.888130716244415" y="0" font-family="Helvetica, Segoe UI Emoji" font-size="97.26642984834608px" fill="#1e1e1e" text-anchor="middle" style="white-space: pre;" direction="ltr" dominant-baseline="text-before-edge">𝛑</text></g><g stroke-linecap="round"><g transform="translate(1083.829605082331 1072.1135754227246) rotate(1.526666247102488e-13 0 -72.70661638254597)"><path d="M0 0 C0 -24.24, 0 -121.18, 0 -145.41 M0 0 C0 -24.24, 0 -121.18, 0 -145.41" stroke="#e03131" stroke-width="4" fill="none"></path></g></g><mask></mask><g stroke-linecap="round"><g transform="translate(1082.4453713509183 801.3268622057933) rotate(0 0 -72.70661638254596)"><path d="M0 0 C0 -24.24, 0 -121.18, 0 -145.41 M0 0 C0 -24.24, 0 -121.18, 0 -145.41" stroke="#e03131" stroke-width="4" fill="none"></path></g></g><mask></mask><g stroke-linecap="round"><g transform="translate(1081.0611376194875 531.4012845824047) rotate(0 0 -72.70661638254596)"><path d="M0 0 C0 -24.24, 0 -121.18, 0 -145.41 M0 0 C0 -24.24, 0 -121.18, 0 -145.41" stroke="#e03131" stroke-width="4" fill="none"></path></g></g><mask></mask><g stroke-linecap="round"><g transform="translate(1079.676903888092 264.24417442182073) rotate(0 0 -72.70661638254596)"><path d="M0 0 C0 -24.24, 0 -121.18, 0 -145.41 M0 0 C0 -24.24, 0 -121.18, 0 -145.41" stroke="#e03131" stroke-width="4" fill="none"></path></g></g><mask></mask><g transform="translate(996.4751128947973 65.6357944527237) rotate(0 87.3544921875 20.69999999999999)"><text x="87.3544921875" y="0" font-family="Helvetica, Segoe UI Emoji" font-size="36px" fill="#1e1e1e" text-anchor="middle" style="white-space: pre;" direction="ltr" dominant-baseline="text-before-edge">Результат</text></g><g stroke-linecap="round"><g transform="translate(651.4967305008508 1434.0262196321441) rotate(0 196.33504805682423 -116.1573504278673)"><path d="M0 0 C65.45 -38.72, 327.23 -193.6, 392.67 -232.31 M0 0 C65.45 -38.72, 327.23 -193.6, 392.67 -232.31" stroke="#e03131" stroke-width="4" fill="none"></path></g></g><mask></mask><g stroke-linecap="round"><g transform="translate(1125.524583212944 1203.645505865713) rotate(0 179.97077751953339 122.13503528854199)"><path d="M0 0 C59.99 40.71, 299.95 203.56, 359.94 244.27 M0 0 C59.99 40.71, 299.95 203.56, 359.94 244.27" stroke="#e03131" stroke-width="4" fill="none"></path></g></g><mask></mask><g stroke-linecap="round"><g transform="translate(206.9601196702497 1780.052617187268) rotate(0 196.33504805682423 -116.1573504278673)"><path d="M0 0 C65.45 -38.72, 327.23 -193.6, 392.67 -232.31 M0 0 C65.45 -38.72, 327.23 -193.6, 392.67 -232.31" stroke="#e03131" stroke-width="4" fill="none"></path></g></g><mask></mask><g stroke-linecap="round"><g transform="translate(680.9879723823433 1549.6719034208368) rotate(0 179.9707775195336 122.13503528854199)"><path d="M0 0 C59.99 40.71, 299.95 203.56, 359.94 244.27 M0 0 C59.99 40.71, 299.95 203.56, 359.94 244.27" stroke="#e03131" stroke-width="4" fill="none"></path></g></g><mask></mask><g transform="translate(670.3092634760924 1516.5864016270925) rotate(0 270.2577819824219 12.972817212125165)"><text x="270.2577819824219" y="0" font-family="Helvetica, Segoe UI Emoji" font-size="22.561421238478466px" fill="#1e1e1e" text-anchor="middle" style="white-space: pre;" direction="ltr" dominant-baseline="text-before-edge">Н_УЧЕНИКИ.ЧЛВК_ИД = Н_ОБУЧЕНИЯ.ЧЛВК_ИД</text></g><g transform="translate(1121.6327097052326 1173.2563882876752) rotate(0 205.9335174560547 12.972817212125108)"><text x="205.9335174560547" y="0" font-family="Helvetica, Segoe UI Emoji" font-size="22.561421238478466px" fill="#1e1e1e" text-anchor="middle" style="white-space: pre;" direction="ltr" dominant-baseline="text-before-edge">Н_УЧЕНИКИ.ЧЛВК_ИД = Н_ЛЮДИ.ИД</text></g><g transform="translate(1115.4086364755776 893.1713774055175) rotate(0 192.58175659179688 12.972817212125108)"><text x="192.58175659179688" y="0" font-family="Helvetica, Segoe UI Emoji" font-size="22.561421238478466px" fill="#1e1e1e" text-anchor="middle" style="white-space: pre;" direction="ltr" dominant-baseline="text-before-edge">Н_ЛЮДИ.ОТЧЕСТВО &gt; 'Георгиевич'</text></g><g transform="translate(1110.9225879753894 623.6272002662356) rotate(0 183.5153045654297 12.972817212125122)"><text x="183.5153045654297" y="0" font-family="Helvetica, Segoe UI Emoji" font-size="22.561421238478466px" fill="#1e1e1e" text-anchor="middle" style="white-space: pre;" direction="ltr" dominant-baseline="text-before-edge">Н_ОБУЧЕНИЯ.ЧЛВК_ИД &lt; 163484</text></g><g transform="translate(1125.4111668414207 351.07135634327625) rotate(0 272.9292297363281 12.972817212125115)"><text x="272.9292297363281" y="0" font-family="Helvetica, Segoe UI Emoji" font-size="22.561421238478466px" fill="#1e1e1e" text-anchor="middle" style="white-space: pre;" direction="ltr" dominant-baseline="text-before-edge">Н_ЛЮДИ.ИД, Н_ОБУЧЕНИЯ.НЗК, Н_УЧЕНИКИ.ИД</text></g></svg>