<svg version="1.1" xmlns="http://www.w3.org/2000/svg" viewBox="0 0 2305.2694712378725 2571.4799707744664" width="4610.538942475745" height="5142.959941548933">
  <!-- svg-source:excalidraw -->
  
  <defs>
    <style class="style-fonts">
      @font-face {
        font-family: "Virgil";
        src: url("https://excalidraw.com/Virgil.woff2");
      }
      @font-face {
        font-family: "Cascadia";
        src: url("https://excalidraw.com/Cascadia.woff2");
      }
      @font-face {
        font-family: "Assistant";
        src: url("https://excalidraw.com/Assistant-Regular.woff2");
      }
    </style>
    
  </defs>
  <rect x="0" y="0" width="2305.2694712378725" height="2571.4799707744664" fill="#ffffff"></rect><g stroke-linecap="round" transform="translate(10 10) rotate(0 1142.6347356189362 1275.7399853872332)"><path d="M32 0 C744.66 0, 1457.33 0, 2253.27 0 C2274.6 0, 2285.27 10.67, 2285.27 32 C2285.27 976.46, 2285.27 1920.92, 2285.27 2519.48 C2285.27 2540.81, 2274.6 2551.48, 2253.27 2551.48 C1676.48 2551.48, 1099.7 2551.48, 32 2551.48 C10.67 2551.48, 0 2540.81, 0 2519.48 C0 1605.06, 0 690.64, 0 32 C0 10.67, 10.67 0, 32 0" stroke="none" stroke-width="0" fill="#a5d8ff"></path><path d="M32 0 C886.46 0, 1740.92 0, 2253.27 0 M32 0 C874.04 0, 1716.08 0, 2253.27 0 M2253.27 0 C2274.6 0, 2285.27 10.67, 2285.27 32 M2253.27 0 C2274.6 0, 2285.27 10.67, 2285.27 32 M2285.27 32 C2285.27 636.55, 2285.27 1241.1, 2285.27 2519.48 M2285.27 32 C2285.27 763.34, 2285.27 1494.68, 2285.27 2519.48 M2285.27 2519.48 C2285.27 2540.81, 2274.6 2551.48, 2253.27 2551.48 M2285.27 2519.48 C2285.27 2540.81, 2274.6 2551.48, 2253.27 2551.48 M2253.27 2551.48 C1785.07 2551.48, 1316.87 2551.48, 32 2551.48 M2253.27 2551.48 C1578.16 2551.48, 903.06 2551.48, 32 2551.48 M32 2551.48 C10.67 2551.48, 0 2540.81, 0 2519.48 M32 2551.48 C10.67 2551.48, 0 2540.81, 0 2519.48 M0 2519.48 C0 1832.33, 0 1145.19, 0 32 M0 2519.48 C0 1664.56, 0 809.64, 0 32 M0 32 C0 10.67, 10.67 0, 32 0 M0 32 C0 10.67, 10.67 0, 32 0" stroke="#1e1e1e" stroke-width="4" fill="none"></path></g><g transform="translate(615.2565011968945 1261.6691111696632) rotate(0 36.66138082286852 54.579572764867066)"><text x="36.661380822868445" y="0" font-family="Helvetica, Segoe UI Emoji" font-size="94.92099611281236px" fill="#1e1e1e" text-anchor="middle" style="white-space: pre;" direction="ltr" dominant-baseline="text-before-edge">⋈</text></g><g stroke-linecap="round"><g transform="translate(221.08370715619458 1613.3748431636334) rotate(0 196.33504805682423 -116.1573504278673)"><path d="M0 0 C65.45 -38.72, 327.23 -193.6, 392.67 -232.31 M0 0 C65.45 -38.72, 327.23 -193.6, 392.67 -232.31" stroke="#e03131" stroke-width="4" fill="none"></path></g></g><mask></mask><g stroke-linecap="round"><g transform="translate(695.1115598682845 1382.994129397202) rotate(0 179.97077751953384 122.13503528854193)"><path d="M0 0 C59.99 40.71, 299.95 203.56, 359.94 244.27 M0 0 C59.99 40.71, 299.95 203.56, 359.94 244.27" stroke="#e03131" stroke-width="4" fill="none"></path></g></g><mask></mask><g transform="translate(684.4328509620354 1349.9086276034582) rotate(0 270.2577819824219 12.972817212125108)"><text x="270.2577819824219" y="0" font-family="Helvetica, Segoe UI Emoji" font-size="22.561421238478466px" fill="#1e1e1e" text-anchor="middle" style="white-space: pre;" direction="ltr" dominant-baseline="text-before-edge">Н_УЧЕНИКИ.ЧЛВК_ИД = Н_ОБУЧЕНИЯ.ЧЛВК_ИД</text></g><g transform="translate(626.6097844075739 992.7609333151572) rotate(0 28.888130716244632 55.928197162798995)"><text x="28.888130716244415" y="0" font-family="Helvetica, Segoe UI Emoji" font-size="97.26642984834608px" fill="#1e1e1e" text-anchor="middle" style="white-space: pre;" direction="ltr" dominant-baseline="text-before-edge">𝛑</text></g><g stroke-linecap="round"><g transform="translate(653.271632747008 1256.726442554158) rotate(0 0 -72.70661638254597)"><path d="M0 0 C0 -24.24, 0 -121.18, 0 -145.41 M0 0 C0 -24.24, 0 -121.18, 0 -145.41" stroke="#e03131" stroke-width="4" fill="none"></path></g></g><mask></mask><g transform="translate(687.5677627468503 1078.95532730088) rotate(0 328.6222229003906 12.972817212125108)"><text x="328.6222229003906" y="0" font-family="Helvetica, Segoe UI Emoji" font-size="22.561421238478466px" fill="#1e1e1e" text-anchor="middle" style="white-space: pre;" direction="ltr" dominant-baseline="text-before-edge">Н_УЧЕНИКИ.ЧЛВК_ИД, Н_УЧЕНИКИ.ИД, Н_ОБУЧЕНИЯ.НЗК</text></g><g transform="translate(1726.2795259884788 1906.8195053592642) rotate(0 78.9873046875 20.700000000000045)"><text x="78.9873046875" y="0" font-family="Helvetica, Segoe UI Emoji" font-size="36px" fill="#1e1e1e" text-anchor="middle" style="white-space: pre;" direction="ltr" dominant-baseline="text-before-edge">Н_ЛЮДИ</text></g><g transform="translate(1770.8805935049131 1271.8497005616118) rotate(0 30.128437288170062 56.7214192654659)"><text x="30.128437288169955" y="0" font-family="Helvetica, Segoe UI Emoji" font-size="98.64594654863642px" fill="#1e1e1e" text-anchor="middle" style="white-space: pre;" direction="ltr" dominant-baseline="text-before-edge">σ</text></g><g stroke-linecap="round"><g transform="translate(1800.2642661593964 1642.7829365627765) rotate(1.526666247102488e-13 0 -125.2096060660786)"><path d="M0 0 C0 -41.74, 0 -208.68, 0 -250.42 M0 0 C0 -41.74, 0 -208.68, 0 -250.42" stroke="#e03131" stroke-width="4" fill="none"></path></g></g><mask></mask><g transform="translate(1831.8432975526412 1358.8347591785046) rotate(0 192.58175659179688 12.972817212125108)"><text x="192.58175659179688" y="0" font-family="Helvetica, Segoe UI Emoji" font-size="22.561421238478466px" fill="#1e1e1e" text-anchor="middle" style="white-space: pre;" direction="ltr" dominant-baseline="text-before-edge">Н_ЛЮДИ.ОТЧЕСТВО &gt; 'Георгиевич'</text></g><g transform="translate(1777.7367374925416 1009.3992732474795) rotate(0 28.888130716244632 55.928197162798995)"><text x="28.888130716244415" y="0" font-family="Helvetica, Segoe UI Emoji" font-size="97.26642984834608px" fill="#1e1e1e" text-anchor="middle" style="white-space: pre;" direction="ltr" dominant-baseline="text-before-edge">𝛑</text></g><g stroke-linecap="round"><g transform="translate(1804.3985858319757 1273.3647824864802) rotate(0 0 -72.70661638254597)"><path d="M0 0 C0 -24.24, 0 -121.18, 0 -145.41 M0 0 C0 -24.24, 0 -121.18, 0 -145.41" stroke="#e03131" stroke-width="4" fill="none"></path></g></g><mask></mask><g transform="translate(1846.023031551329 1093.141223989823) rotate(0 68.69225311279297 12.972817212125108)"><text x="68.69225311279297" y="0" font-family="Helvetica, Segoe UI Emoji" font-size="22.561421238478466px" fill="#1e1e1e" text-anchor="middle" style="white-space: pre;" direction="ltr" dominant-baseline="text-before-edge">Н_ЛЮДИ.ИД</text></g><g transform="translate(1249.1737380778904 531.4335447877557) rotate(0 36.66138082286852 54.57957276486709)"><text x="36.661380822868445" y="0" font-family="Helvetica, Segoe UI Emoji" font-size="94.92099611281236px" fill="#1e1e1e" text-anchor="middle" style="white-space: pre;" direction="ltr" dominant-baseline="text-before-edge">⋈</text></g><g stroke-linecap="round"><g transform="translate(671.9708098220108 980.661867310996) rotate(0 287.16764666136714 -165.79631810249123)"><path d="M0 0 C95.72 -55.27, 478.61 -276.33, 574.34 -331.59 M0 0 C95.72 -55.27, 478.61 -276.33, 574.34 -331.59" stroke="#e03131" stroke-width="4" fill="none"></path></g></g><mask></mask><g stroke-linecap="round"><g transform="translate(1325.2114164998093 651.0032181953167) rotate(0 220.43609103529525 174.8625650212011)"><path d="M0 0 C73.48 58.29, 367.39 291.44, 440.87 349.73 M0 0 C73.48 58.29, 367.39 291.44, 440.87 349.73" stroke="#e03131" stroke-width="4" fill="none"></path></g></g><mask></mask><g transform="translate(1323.7719862354788 620.6141006172792) rotate(0 205.9335174560547 12.972817212125115)"><text x="205.9335174560547" y="0" font-family="Helvetica, Segoe UI Emoji" font-size="22.561421238478466px" fill="#1e1e1e" text-anchor="middle" style="white-space: pre;" direction="ltr" dominant-baseline="text-before-edge">Н_УЧЕНИКИ.ЧЛВК_ИД = Н_ЛЮДИ.ИД</text></g><g transform="translate(1260.8104804066425 260.06650994054985) rotate(0 28.888130716244632 55.928197162798995)"><text x="28.888130716244415" y="0" font-family="Helvetica, Segoe UI Emoji" font-size="97.26642984834608px" fill="#1e1e1e" text-anchor="middle" style="white-space: pre;" direction="ltr" dominant-baseline="text-before-edge">𝛑</text></g><g stroke-linecap="round"><g transform="translate(1287.4723287460765 524.0320191795508) rotate(0 0 -72.70661638254595)"><path d="M0 0 C0 -24.24, 0 -121.18, 0 -145.41 M0 0 C0 -24.24, 0 -121.18, 0 -145.41" stroke="#e03131" stroke-width="4" fill="none"></path></g></g><mask></mask><g stroke-linecap="round"><g transform="translate(1286.0880950146857 256.87490901896683) rotate(0 0 -72.70661638254597)"><path d="M0 0 C0 -24.24, 0 -121.18, 0 -145.41 M0 0 C0 -24.24, 0 -121.18, 0 -145.41" stroke="#e03131" stroke-width="4" fill="none"></path></g></g><mask></mask><g transform="translate(1202.8863040213873 58.266529049869746) rotate(0 87.3544921875 20.69999999999999)"><text x="87.3544921875" y="0" font-family="Helvetica, Segoe UI Emoji" font-size="36px" fill="#1e1e1e" text-anchor="middle" style="white-space: pre;" direction="ltr" dominant-baseline="text-before-edge">Результат</text></g><g transform="translate(1331.8223579680125 343.7020909404224) rotate(0 272.9292297363281 12.972817212125108)"><text x="272.9292297363281" y="0" font-family="Helvetica, Segoe UI Emoji" font-size="22.561421238478466px" fill="#1e1e1e" text-anchor="middle" style="white-space: pre;" direction="ltr" dominant-baseline="text-before-edge">Н_ЛЮДИ.ИД, Н_ОБУЧЕНИЯ.НЗК, Н_УЧЕНИКИ.ИД</text></g><g transform="translate(1770.8742228276133 1629.913639595644) rotate(0 28.888130716244632 55.92819716279894)"><text x="28.888130716244415" y="0" font-family="Helvetica, Segoe UI Emoji" font-size="97.26642984834608px" fill="#1e1e1e" text-anchor="middle" style="white-space: pre;" direction="ltr" dominant-baseline="text-before-edge">𝛑</text></g><g stroke-linecap="round"><g transform="translate(1797.5360711670473 1893.8791488346449) rotate(0 0 -72.70661638254592)"><path d="M0 0 C0 -24.24, 0 -121.18, 0 -145.41 M0 0 C0 -24.24, 0 -121.18, 0 -145.41" stroke="#e03131" stroke-width="4" fill="none"></path></g></g><mask></mask><g transform="translate(1833.8838830362383 1716.6171479802133) rotate(0 189.46963500976562 12.972817212125165)"><text x="189.46963500976562" y="0" font-family="Helvetica, Segoe UI Emoji" font-size="22.561421238478466px" fill="#1e1e1e" text-anchor="middle" style="white-space: pre;" direction="ltr" dominant-baseline="text-before-edge">Н_ЛЮДИ.ИД, Н_ЛЮДИ.ОТЧЕСТВО</text></g><g transform="translate(102.76111274167852 1919.9635344536277) rotate(0 109.7490234375 20.700000000000045)"><text x="109.7490234375" y="0" font-family="Helvetica, Segoe UI Emoji" font-size="36px" fill="#1e1e1e" text-anchor="middle" style="white-space: pre;" direction="ltr" dominant-baseline="text-before-edge">Н_УЧЕНИКИ</text></g><g transform="translate(1025.175792084954 1629.5521498091844) rotate(0 30.128437288170062 56.7214192654659)"><text x="30.128437288169955" y="0" font-family="Helvetica, Segoe UI Emoji" font-size="98.64594654863642px" fill="#1e1e1e" text-anchor="middle" style="white-space: pre;" direction="ltr" dominant-baseline="text-before-edge">σ</text></g><g stroke-linecap="round"><g transform="translate(1053.7559845396372 1893.979551606334) rotate(0 0 -72.70661638254592)"><path d="M0 0 C0 -24.24, 0 -121.18, 0 -145.41 M0 0 C0 -24.24, 0 -121.18, 0 -145.41" stroke="#e03131" stroke-width="4" fill="none"></path></g></g><mask></mask><g transform="translate(1082.2332011641101 1716.2798896667764) rotate(0 183.5153045654297 12.972817212125165)"><text x="183.5153045654297" y="0" font-family="Helvetica, Segoe UI Emoji" font-size="22.561421238478466px" fill="#1e1e1e" text-anchor="middle" style="white-space: pre;" direction="ltr" dominant-baseline="text-before-edge">Н_ОБУЧЕНИЯ.ЧЛВК_ИД &lt; 163484</text></g><g transform="translate(167.8996654281509 1637.48352335355) rotate(0 28.888130716244632 55.92819716279894)"><text x="28.888130716244415" y="0" font-family="Helvetica, Segoe UI Emoji" font-size="97.26642984834608px" fill="#1e1e1e" text-anchor="middle" style="white-space: pre;" direction="ltr" dominant-baseline="text-before-edge">𝛑</text></g><g stroke-linecap="round"><g transform="translate(194.56151376758498 1901.4490325925508) rotate(0 0 -72.70661638254592)"><path d="M0 0 C0 -24.24, 0 -121.18, 0 -145.41 M0 0 C0 -24.24, 0 -121.18, 0 -145.41" stroke="#e03131" stroke-width="4" fill="none"></path></g></g><mask></mask><g transform="translate(244.5990431577702 1723.6779173392729) rotate(0 218.62428283691406 12.972817212125165)"><text x="218.62428283691406" y="0" font-family="Helvetica, Segoe UI Emoji" font-size="22.561421238478466px" fill="#1e1e1e" text-anchor="middle" style="white-space: pre;" direction="ltr" dominant-baseline="text-before-edge">Н_УЧЕНИКИ.ЧЛВК_ИД, Н_УЧЕНИКИ.ИД</text></g><g transform="translate(949.8911025120196 2163.3944103468802) rotate(0 123.521484375 20.700000000000045)"><text x="123.521484375" y="0" font-family="Helvetica, Segoe UI Emoji" font-size="36px" fill="#1e1e1e" text-anchor="middle" style="white-space: pre;" direction="ltr" dominant-baseline="text-before-edge">Н_ОБУЧЕНИЯ</text></g><g transform="translate(1026.5586688029507 1882.1105642171053) rotate(0 28.888130716244632 55.92819716279894)"><text x="28.888130716244415" y="0" font-family="Helvetica, Segoe UI Emoji" font-size="97.26642984834608px" fill="#1e1e1e" text-anchor="middle" style="white-space: pre;" direction="ltr" dominant-baseline="text-before-edge">𝛑</text></g><g stroke-linecap="round"><g transform="translate(1053.2205171423848 2146.0760734561054) rotate(0 0 -72.70661638254592)"><path d="M0 0 C0 -24.24, 0 -121.18, 0 -145.41 M0 0 C0 -24.24, 0 -121.18, 0 -145.41" stroke="#e03131" stroke-width="4" fill="none"></path></g></g><mask></mask><g transform="translate(1104.4560244135428 1968.3049582028282) rotate(0 243.01443481445312 12.972817212125165)"><text x="243.01443481445312" y="0" font-family="Helvetica, Segoe UI Emoji" font-size="22.561421238478466px" fill="#1e1e1e" text-anchor="middle" style="white-space: pre;" direction="ltr" dominant-baseline="text-before-edge">Н_ОБУЧЕНИЯ.ЧЛВК_ИД, Н_ОБУЧЕНИЯ.НЗК</text></g></svg>