<svg version="1.1" xmlns="http://www.w3.org/2000/svg" viewBox="0 0 2240.383659739683 2257.904186466033" width="4480.767319479366" height="4515.808372932066">
  <!-- svg-source:excalidraw -->
  
  <defs>
    <style class="style-fonts">
      @font-face {
        font-family: "Virgil";
        src: url("https://excalidraw.com/Virgil.woff2");
      }
      @font-face {
        font-family: "Cascadia";
        src: url("https://excalidraw.com/Cascadia.woff2");
      }
      @font-face {
        font-family: "Assistant";
        src: url("https://excalidraw.com/Assistant-Regular.woff2");
      }
    </style>
    
  </defs>
  <rect x="0" y="0" width="2240.383659739683" height="2257.904186466033" fill="#ffffff"></rect><g stroke-linecap="round" transform="translate(10 10) rotate(0 1110.1918298698415 1118.9520932330165)"><path d="M32 0 C757.5 0, 1483.01 0, 2188.38 0 C2209.72 0, 2220.38 10.67, 2220.38 32 C2220.38 656.39, 2220.38 1280.78, 2220.38 2205.9 C2220.38 2227.24, 2209.72 2237.9, 2188.38 2237.9 C1590.99 2237.9, 993.6 2237.9, 32 2237.9 C10.67 2237.9, 0 2227.24, 0 2205.9 C0 1369.42, 0 532.94, 0 32 C0 10.67, 10.67 0, 32 0" stroke="none" stroke-width="0" fill="#a5d8ff"></path><path d="M32 0 C786.18 0, 1540.37 0, 2188.38 0 M32 0 C786.25 0, 1540.5 0, 2188.38 0 M2188.38 0 C2209.72 0, 2220.38 10.67, 2220.38 32 M2188.38 0 C2209.72 0, 2220.38 10.67, 2220.38 32 M2220.38 32 C2220.38 834.65, 2220.38 1637.31, 2220.38 2205.9 M2220.38 32 C2220.38 837.85, 2220.38 1643.69, 2220.38 2205.9 M2220.38 2205.9 C2220.38 2227.24, 2209.72 2237.9, 2188.38 2237.9 M2220.38 2205.9 C2220.38 2227.24, 2209.72 2237.9, 2188.38 2237.9 M2188.38 2237.9 C1627.95 2237.9, 1067.51 2237.9, 32 2237.9 M2188.38 2237.9 C1562.38 2237.9, 936.37 2237.9, 32 2237.9 M32 2237.9 C10.67 2237.9, 0 2227.24, 0 2205.9 M32 2237.9 C10.67 2237.9, 0 2227.24, 0 2205.9 M0 2205.9 C0 1760.6, 0 1315.29, 0 32 M0 2205.9 C0 1590.44, 0 974.99, 0 32 M0 32 C0 10.67, 10.67 0, 32 0 M0 32 C0 10.67, 10.67 0, 32 0" stroke="#1e1e1e" stroke-width="4" fill="none"></path></g><g transform="translate(65.0733535796262 1883.4712393840377) rotate(0 109.7490234375 20.700000000000045)"><text x="109.7490234375" y="0" font-family="Helvetica, Segoe UI Emoji" font-size="36px" fill="#1e1e1e" text-anchor="middle" style="white-space: pre;" direction="ltr" dominant-baseline="text-before-edge">Н_УЧЕНИКИ</text></g><g transform="translate(1009.0971511225553 1864.3743388018738) rotate(0 30.128437288170062 56.7214192654659)"><text x="30.128437288169955" y="0" font-family="Helvetica, Segoe UI Emoji" font-size="98.64594654863642px" fill="#1e1e1e" text-anchor="middle" style="white-space: pre;" direction="ltr" dominant-baseline="text-before-edge">σ</text></g><g stroke-linecap="round"><g transform="translate(1037.6773435772384 2128.8017405990236) rotate(0 0 -72.70661638254592)"><path d="M0 0 C0 -24.24, 0 -121.18, 0 -145.41 M0 0 C0 -24.24, 0 -121.18, 0 -145.41" stroke="#e03131" stroke-width="4" fill="none"></path></g></g><mask></mask><g transform="translate(1066.1545602017113 1951.1020786594659) rotate(0 183.5153045654297 12.972817212125165)"><text x="183.5153045654297" y="0" font-family="Helvetica, Segoe UI Emoji" font-size="22.561421238478466px" fill="#1e1e1e" text-anchor="middle" style="white-space: pre;" direction="ltr" dominant-baseline="text-before-edge">Н_ОБУЧЕНИЯ.ЧЛВК_ИД &lt; 163484</text></g><g transform="translate(130.2119062660995 1600.9912282839598) rotate(0 28.888130716244632 55.92819716279894)"><text x="28.888130716244415" y="0" font-family="Helvetica, Segoe UI Emoji" font-size="97.26642984834608px" fill="#1e1e1e" text-anchor="middle" style="white-space: pre;" direction="ltr" dominant-baseline="text-before-edge">𝛑</text></g><g stroke-linecap="round"><g transform="translate(156.87375460553358 1864.9567375229608) rotate(0 0 -72.70661638254592)"><path d="M0 0 C0 -24.24, 0 -121.18, 0 -145.41 M0 0 C0 -24.24, 0 -121.18, 0 -145.41" stroke="#e03131" stroke-width="4" fill="none"></path></g></g><mask></mask><g transform="translate(206.91128399572062 1687.1856222696829) rotate(0 218.62428283691406 12.972817212125165)"><text x="218.62428283691406" y="0" font-family="Helvetica, Segoe UI Emoji" font-size="22.561421238478466px" fill="#1e1e1e" text-anchor="middle" style="white-space: pre;" direction="ltr" dominant-baseline="text-before-edge">Н_УЧЕНИКИ.ЧЛВК_ИД, Н_УЧЕНИКИ.ИД</text></g><g transform="translate(936.2134746829151 2143.709207210352) rotate(0 123.521484375 20.700000000000045)"><text x="123.521484375" y="0" font-family="Helvetica, Segoe UI Emoji" font-size="36px" fill="#1e1e1e" text-anchor="middle" style="white-space: pre;" direction="ltr" dominant-baseline="text-before-edge">Н_ОБУЧЕНИЯ</text></g><g transform="translate(1010.7285104970115 1616.3441061990648) rotate(0 28.888130716244632 55.92819716279894)"><text x="28.888130716244415" y="0" font-family="Helvetica, Segoe UI Emoji" font-size="97.26642984834608px" fill="#1e1e1e" text-anchor="middle" style="white-space: pre;" direction="ltr" dominant-baseline="text-before-edge">𝛑</text></g><g stroke-linecap="round"><g transform="translate(1037.3903588364456 1880.3096154380655) rotate(0 0 -72.70661638254592)"><path d="M0 0 C0 -24.24, 0 -121.18, 0 -145.41 M0 0 C0 -24.24, 0 -121.18, 0 -145.41" stroke="#e03131" stroke-width="4" fill="none"></path></g></g><mask></mask><g transform="translate(1088.6258661076 1702.5385001847876) rotate(0 243.01443481445312 12.972817212125165)"><text x="243.01443481445312" y="0" font-family="Helvetica, Segoe UI Emoji" font-size="22.561421238478466px" fill="#1e1e1e" text-anchor="middle" style="white-space: pre;" direction="ltr" dominant-baseline="text-before-edge">Н_ОБУЧЕНИЯ.ЧЛВК_ИД, Н_ОБУЧЕНИЯ.НЗК</text></g><g transform="translate(594.445252481094 1243.1188801990647) rotate(0 36.66138082286852 54.579572764867066)"><text x="36.661380822868445" y="0" font-family="Helvetica, Segoe UI Emoji" font-size="94.92099611281236px" fill="#1e1e1e" text-anchor="middle" style="white-space: pre;" direction="ltr" dominant-baseline="text-before-edge">⋈</text></g><g stroke-linecap="round"><g transform="translate(200.27245844039408 1594.8246121930351) rotate(0 196.33504805682423 -116.1573504278673)"><path d="M0 0 C65.45 -38.72, 327.23 -193.6, 392.67 -232.31 M0 0 C65.45 -38.72, 327.23 -193.6, 392.67 -232.31" stroke="#e03131" stroke-width="4" fill="none"></path></g></g><mask></mask><g stroke-linecap="round"><g transform="translate(674.3003111524877 1364.4438984266035) rotate(0 179.97077751953384 122.13503528854193)"><path d="M0 0 C59.99 40.71, 299.95 203.56, 359.94 244.27 M0 0 C59.99 40.71, 299.95 203.56, 359.94 244.27" stroke="#e03131" stroke-width="4" fill="none"></path></g></g><mask></mask><g transform="translate(663.6216022462349 1331.3583966328597) rotate(0 270.2577819824219 12.972817212125108)"><text x="270.2577819824219" y="0" font-family="Helvetica, Segoe UI Emoji" font-size="22.561421238478466px" fill="#1e1e1e" text-anchor="middle" style="white-space: pre;" direction="ltr" dominant-baseline="text-before-edge">Н_УЧЕНИКИ.ЧЛВК_ИД = Н_ОБУЧЕНИЯ.ЧЛВК_ИД</text></g><g transform="translate(605.798535691777 974.2107023445587) rotate(0 28.888130716244632 55.928197162798995)"><text x="28.888130716244415" y="0" font-family="Helvetica, Segoe UI Emoji" font-size="97.26642984834608px" fill="#1e1e1e" text-anchor="middle" style="white-space: pre;" direction="ltr" dominant-baseline="text-before-edge">𝛑</text></g><g stroke-linecap="round"><g transform="translate(632.4603840312111 1238.1762115835595) rotate(0 0 -72.70661638254597)"><path d="M0 0 C0 -24.24, 0 -121.18, 0 -145.41 M0 0 C0 -24.24, 0 -121.18, 0 -145.41" stroke="#e03131" stroke-width="4" fill="none"></path></g></g><mask></mask><g transform="translate(666.7565140310535 1060.4050963302816) rotate(0 328.6222229003906 12.972817212125108)"><text x="328.6222229003906" y="0" font-family="Helvetica, Segoe UI Emoji" font-size="22.561421238478466px" fill="#1e1e1e" text-anchor="middle" style="white-space: pre;" direction="ltr" dominant-baseline="text-before-edge">Н_УЧЕНИКИ.ЧЛВК_ИД, Н_УЧЕНИКИ.ИД, Н_ОБУЧЕНИЯ.НЗК</text></g><g transform="translate(1709.9106137360186 1657.267778295045) rotate(0 78.9873046875 20.700000000000045)"><text x="78.9873046875" y="0" font-family="Helvetica, Segoe UI Emoji" font-size="36px" fill="#1e1e1e" text-anchor="middle" style="white-space: pre;" direction="ltr" dominant-baseline="text-before-edge">Н_ЛЮДИ</text></g><g transform="translate(1750.0693447891144 1253.2994695910133) rotate(0 30.128437288170062 56.7214192654659)"><text x="30.128437288169955" y="0" font-family="Helvetica, Segoe UI Emoji" font-size="98.64594654863642px" fill="#1e1e1e" text-anchor="middle" style="white-space: pre;" direction="ltr" dominant-baseline="text-before-edge">σ</text></g><g stroke-linecap="round"><g transform="translate(1779.4530174435977 1624.2327055921783) rotate(1.526666247102488e-13 0 -125.2096060660786)"><path d="M0 0 C0 -41.74, 0 -208.68, 0 -250.42 M0 0 C0 -41.74, 0 -208.68, 0 -250.42" stroke="#e03131" stroke-width="4" fill="none"></path></g></g><mask></mask><g transform="translate(1811.0320488368443 1340.284528207906) rotate(0 192.58175659179688 12.972817212125108)"><text x="192.58175659179688" y="0" font-family="Helvetica, Segoe UI Emoji" font-size="22.561421238478466px" fill="#1e1e1e" text-anchor="middle" style="white-space: pre;" direction="ltr" dominant-baseline="text-before-edge">Н_ЛЮДИ.ОТЧЕСТВО &gt; 'Георгиевич'</text></g><g transform="translate(1756.925488776743 990.849042276881) rotate(0 28.888130716244632 55.928197162798995)"><text x="28.888130716244415" y="0" font-family="Helvetica, Segoe UI Emoji" font-size="97.26642984834608px" fill="#1e1e1e" text-anchor="middle" style="white-space: pre;" direction="ltr" dominant-baseline="text-before-edge">𝛑</text></g><g stroke-linecap="round"><g transform="translate(1783.587337116177 1254.8145515158817) rotate(0 0 -72.70661638254597)"><path d="M0 0 C0 -24.24, 0 -121.18, 0 -145.41 M0 0 C0 -24.24, 0 -121.18, 0 -145.41" stroke="#e03131" stroke-width="4" fill="none"></path></g></g><mask></mask><g transform="translate(1825.2117828355285 1074.5909930192245) rotate(0 68.69225311279297 12.972817212125108)"><text x="68.69225311279297" y="0" font-family="Helvetica, Segoe UI Emoji" font-size="22.561421238478466px" fill="#1e1e1e" text-anchor="middle" style="white-space: pre;" direction="ltr" dominant-baseline="text-before-edge">Н_ЛЮДИ.ИД</text></g><g transform="translate(1228.3624893620918 512.8833138171573) rotate(0 36.66138082286852 54.57957276486709)"><text x="36.661380822868445" y="0" font-family="Helvetica, Segoe UI Emoji" font-size="94.92099611281236px" fill="#1e1e1e" text-anchor="middle" style="white-space: pre;" direction="ltr" dominant-baseline="text-before-edge">⋈</text></g><g stroke-linecap="round"><g transform="translate(651.1595611062121 962.1116363403974) rotate(0 287.16764666136714 -165.79631810249123)"><path d="M0 0 C95.72 -55.27, 478.61 -276.33, 574.34 -331.59 M0 0 C95.72 -55.27, 478.61 -276.33, 574.34 -331.59" stroke="#e03131" stroke-width="4" fill="none"></path></g></g><mask></mask><g stroke-linecap="round"><g transform="translate(1304.4001677840106 632.4529872247182) rotate(0 220.43609103529525 174.8625650212011)"><path d="M0 0 C73.48 58.29, 367.39 291.44, 440.87 349.73 M0 0 C73.48 58.29, 367.39 291.44, 440.87 349.73" stroke="#e03131" stroke-width="4" fill="none"></path></g></g><mask></mask><g transform="translate(1302.9607375196802 602.0638696466807) rotate(0 205.9335174560547 12.972817212125115)"><text x="205.9335174560547" y="0" font-family="Helvetica, Segoe UI Emoji" font-size="22.561421238478466px" fill="#1e1e1e" text-anchor="middle" style="white-space: pre;" direction="ltr" dominant-baseline="text-before-edge">Н_УЧЕНИКИ.ЧЛВК_ИД = Н_ЛЮДИ.ИД</text></g><g transform="translate(1239.9992316908456 241.51627896995137) rotate(0 28.888130716244632 55.928197162798995)"><text x="28.888130716244415" y="0" font-family="Helvetica, Segoe UI Emoji" font-size="97.26642984834608px" fill="#1e1e1e" text-anchor="middle" style="white-space: pre;" direction="ltr" dominant-baseline="text-before-edge">𝛑</text></g><g stroke-linecap="round"><g transform="translate(1266.6610800302797 505.4817882089524) rotate(0 0 -72.70661638254596)"><path d="M0 0 C0 -24.24, 0 -121.18, 0 -145.41 M0 0 C0 -24.24, 0 -121.18, 0 -145.41" stroke="#e03131" stroke-width="4" fill="none"></path></g></g><mask></mask><g stroke-linecap="round"><g transform="translate(1265.2768462988852 238.32467804836836) rotate(0 0 -72.70661638254597)"><path d="M0 0 C0 -24.24, 0 -121.18, 0 -145.41 M0 0 C0 -24.24, 0 -121.18, 0 -145.41" stroke="#e03131" stroke-width="4" fill="none"></path></g></g><mask></mask><g transform="translate(1182.0750553055905 39.71629807927127) rotate(0 87.3544921875 20.69999999999999)"><text x="87.3544921875" y="0" font-family="Helvetica, Segoe UI Emoji" font-size="36px" fill="#1e1e1e" text-anchor="middle" style="white-space: pre;" direction="ltr" dominant-baseline="text-before-edge">Результат</text></g><g transform="translate(1311.0111092522138 325.1518599698239) rotate(0 272.9292297363281 12.972817212125122)"><text x="272.9292297363281" y="0" font-family="Helvetica, Segoe UI Emoji" font-size="22.561421238478466px" fill="#1e1e1e" text-anchor="middle" style="white-space: pre;" direction="ltr" dominant-baseline="text-before-edge">Н_ЛЮДИ.ИД, Н_ОБУЧЕНИЯ.НЗК, Н_УЧЕНИКИ.ИД</text></g></svg>