<svg version="1.1" xmlns="http://www.w3.org/2000/svg" viewBox="0 0 2018.9536584377547 1704.329183211217" width="4037.9073168755094" height="3408.658366422434">
  <!-- svg-source:excalidraw -->
  
  <defs>
    <style class="style-fonts">
      @font-face {
        font-family: "Virgil";
        src: url("https://excalidraw.com/Virgil.woff2");
      }
      @font-face {
        font-family: "Cascadia";
        src: url("https://excalidraw.com/Cascadia.woff2");
      }
      @font-face {
        font-family: "Assistant";
        src: url("https://excalidraw.com/Assistant-Regular.woff2");
      }
    </style>
    
  </defs>
  <rect x="0" y="0" width="2018.9536584377547" height="1704.329183211217" fill="#ffffff"></rect><g stroke-linecap="round" transform="translate(10 10) rotate(0 999.4768292188774 842.1645916056085)"><path d="M32 0 C712.06 0, 1392.12 0, 1966.95 0 C1988.29 0, 1998.95 10.67, 1998.95 32 C1998.95 533.16, 1998.95 1034.31, 1998.95 1652.33 C1998.95 1673.66, 1988.29 1684.33, 1966.95 1684.33 C1396.65 1684.33, 826.35 1684.33, 32 1684.33 C10.67 1684.33, 0 1673.66, 0 1652.33 C0 1051.62, 0 450.92, 0 32 C0 10.67, 10.67 0, 32 0" stroke="none" stroke-width="0" fill="#a5d8ff"></path><path d="M32 0 C591 0, 1149.99 0, 1966.95 0 M32 0 C778.63 0, 1525.26 0, 1966.95 0 M1966.95 0 C1988.29 0, 1998.95 10.67, 1998.95 32 M1966.95 0 C1988.29 0, 1998.95 10.67, 1998.95 32 M1998.95 32 C1998.95 553.54, 1998.95 1075.08, 1998.95 1652.33 M1998.95 32 C1998.95 606.81, 1998.95 1181.62, 1998.95 1652.33 M1998.95 1652.33 C1998.95 1673.66, 1988.29 1684.33, 1966.95 1684.33 M1998.95 1652.33 C1998.95 1673.66, 1988.29 1684.33, 1966.95 1684.33 M1966.95 1684.33 C1434.08 1684.33, 901.2 1684.33, 32 1684.33 M1966.95 1684.33 C1469.92 1684.33, 972.88 1684.33, 32 1684.33 M32 1684.33 C10.67 1684.33, 0 1673.66, 0 1652.33 M32 1684.33 C10.67 1684.33, 0 1673.66, 0 1652.33 M0 1652.33 C0 1095.47, 0 538.62, 0 32 M0 1652.33 C0 1283.75, 0 915.17, 0 32 M0 32 C0 10.67, 10.67 0, 32 0 M0 32 C0 10.67, 10.67 0, 32 0" stroke="#1e1e1e" stroke-width="4" fill="none"></path></g><g transform="translate(946.4331559252123 1552.0658894520475) rotate(0 123.521484375 20.700000000000045)"><text x="123.521484375" y="0" font-family="Helvetica, Segoe UI Emoji" font-size="36px" fill="#1e1e1e" text-anchor="middle" style="white-space: pre;" direction="ltr" dominant-baseline="text-before-edge">Н_ОБУЧЕНИЯ</text></g><g transform="translate(105.9910293495559 1302.9809858734195) rotate(0 109.7490234375 20.700000000000045)"><text x="109.7490234375" y="0" font-family="Helvetica, Segoe UI Emoji" font-size="36px" fill="#1e1e1e" text-anchor="middle" style="white-space: pre;" direction="ltr" dominant-baseline="text-before-edge">Н_УЧЕНИКИ</text></g><g transform="translate(1016.8412626133777 1267.1705458246631) rotate(0 30.128437288170062 56.7214192654659)"><text x="30.128437288169955" y="0" font-family="Helvetica, Segoe UI Emoji" font-size="98.64594654863642px" fill="#1e1e1e" text-anchor="middle" style="white-space: pre;" direction="ltr" dominant-baseline="text-before-edge">σ</text></g><g stroke-linecap="round"><g transform="translate(1045.4214550680608 1531.5979476218129) rotate(0 0 -72.70661638254592)"><path d="M0 0 C0 -24.24, 0 -121.18, 0 -145.41 M0 0 C0 -24.24, 0 -121.18, 0 -145.41" stroke="#e03131" stroke-width="4" fill="none"></path></g></g><mask></mask><g transform="translate(1073.8986716925338 1353.8982856822554) rotate(0 183.5153045654297 12.972817212125165)"><text x="183.5153045654297" y="0" font-family="Helvetica, Segoe UI Emoji" font-size="22.561421238478466px" fill="#1e1e1e" text-anchor="middle" style="white-space: pre;" direction="ltr" dominant-baseline="text-before-edge">Н_ОБУЧЕНИЯ.ЧЛВК_ИД &lt; 163484</text></g><g transform="translate(611.5251382676488 907.3366548874125) rotate(0 36.66138082286852 54.579572764867066)"><text x="36.661380822868445" y="0" font-family="Helvetica, Segoe UI Emoji" font-size="94.92099611281236px" fill="#1e1e1e" text-anchor="middle" style="white-space: pre;" direction="ltr" dominant-baseline="text-before-edge">⋈</text></g><g stroke-linecap="round"><g transform="translate(217.35234422694703 1259.042386881383) rotate(0 196.33504805682423 -116.1573504278673)"><path d="M0 0 C65.45 -38.72, 327.23 -193.6, 392.67 -232.31 M0 0 C65.45 -38.72, 327.23 -193.6, 392.67 -232.31" stroke="#e03131" stroke-width="4" fill="none"></path></g></g><mask></mask><g stroke-linecap="round"><g transform="translate(691.3801969390406 1028.6616731149516) rotate(0 179.97077751953384 122.13503528854193)"><path d="M0 0 C59.99 40.71, 299.95 203.56, 359.94 244.27 M0 0 C59.99 40.71, 299.95 203.56, 359.94 244.27" stroke="#e03131" stroke-width="4" fill="none"></path></g></g><mask></mask><g transform="translate(680.7014880327897 995.5761713212074) rotate(0 270.2577819824219 12.972817212125108)"><text x="270.2577819824219" y="0" font-family="Helvetica, Segoe UI Emoji" font-size="22.561421238478466px" fill="#1e1e1e" text-anchor="middle" style="white-space: pre;" direction="ltr" dominant-baseline="text-before-edge">Н_УЧЕНИКИ.ЧЛВК_ИД = Н_ОБУЧЕНИЯ.ЧЛВК_ИД</text></g><g transform="translate(1057.4097271909613 544.8628833066019) rotate(0 36.66138082286852 54.579572764867095)"><text x="36.661380822868445" y="0" font-family="Helvetica, Segoe UI Emoji" font-size="94.92099611281236px" fill="#1e1e1e" text-anchor="middle" style="white-space: pre;" direction="ltr" dominant-baseline="text-before-edge">⋈</text></g><g stroke-linecap="round"><g transform="translate(661.8719961441675 894.8132704805943) rotate(0 196.33504805682423 -116.15735042786733)"><path d="M0 0 C65.45 -38.72, 327.23 -193.6, 392.67 -232.31 M0 0 C65.45 -38.72, 327.23 -193.6, 392.67 -232.31" stroke="#e03131" stroke-width="4" fill="none"></path></g></g><mask></mask><g stroke-linecap="round"><g transform="translate(1135.8998488562593 664.4325567141628) rotate(0 207.53658980506407 119.82130599065096)"><path d="M0 0 C69.18 39.94, 345.89 199.7, 415.07 239.64 M0 0 C69.18 39.94, 345.89 199.7, 415.07 239.64" stroke="#e03131" stroke-width="4" fill="none"></path></g></g><mask></mask><g transform="translate(1132.0079753485497 634.0434391361254) rotate(0 205.9335174560547 12.972817212125108)"><text x="205.9335174560547" y="0" font-family="Helvetica, Segoe UI Emoji" font-size="22.561421238478466px" fill="#1e1e1e" text-anchor="middle" style="white-space: pre;" direction="ltr" dominant-baseline="text-before-edge">Н_УЧЕНИКИ.ЧЛВК_ИД = Н_ЛЮДИ.ИД</text></g><g transform="translate(1488.2292920804293 1308.467951191799) rotate(0 78.9873046875 20.700000000000045)"><text x="78.9873046875" y="0" font-family="Helvetica, Segoe UI Emoji" font-size="36px" fill="#1e1e1e" text-anchor="middle" style="white-space: pre;" direction="ltr" dominant-baseline="text-before-edge">Н_ЛЮДИ</text></g><g transform="translate(1528.3880231335252 904.4996424877675) rotate(0 30.128437288170062 56.7214192654659)"><text x="30.128437288169955" y="0" font-family="Helvetica, Segoe UI Emoji" font-size="98.64594654863642px" fill="#1e1e1e" text-anchor="middle" style="white-space: pre;" direction="ltr" dominant-baseline="text-before-edge">σ</text></g><g stroke-linecap="round"><g transform="translate(1557.7716957880084 1275.4328784889326) rotate(1.526666247102488e-13 -4.547473508864641e-13 -125.2096060660786)"><path d="M0 0 C0 -41.74, 0 -208.68, 0 -250.42 M0 0 C0 -41.74, 0 -208.68, 0 -250.42" stroke="#e03131" stroke-width="4" fill="none"></path></g></g><mask></mask><g transform="translate(1589.350727181255 991.4847011046604) rotate(0 192.58175659179688 12.972817212125108)"><text x="192.58175659179688" y="0" font-family="Helvetica, Segoe UI Emoji" font-size="22.561421238478466px" fill="#1e1e1e" text-anchor="middle" style="white-space: pre;" direction="ltr" dominant-baseline="text-before-edge">Н_ЛЮДИ.ОТЧЕСТВО &gt; 'Георгиевич'</text></g><g transform="translate(1069.0464695197152 273.495848459396) rotate(0 28.888130716244632 55.928197162798995)"><text x="28.888130716244415" y="0" font-family="Helvetica, Segoe UI Emoji" font-size="97.26642984834608px" fill="#1e1e1e" text-anchor="middle" style="white-space: pre;" direction="ltr" dominant-baseline="text-before-edge">𝛑</text></g><g stroke-linecap="round"><g transform="translate(1095.7083178591492 537.461357698397) rotate(0 0 -72.70661638254596)"><path d="M0 0 C0 -24.24, 0 -121.18, 0 -145.41 M0 0 C0 -24.24, 0 -121.18, 0 -145.41" stroke="#e03131" stroke-width="4" fill="none"></path></g></g><mask></mask><g stroke-linecap="round"><g transform="translate(1094.3240841277548 270.304247537813) rotate(0 0 -72.70661638254596)"><path d="M0 0 C0 -24.24, 0 -121.18, 0 -145.41 M0 0 C0 -24.24, 0 -121.18, 0 -145.41" stroke="#e03131" stroke-width="4" fill="none"></path></g></g><mask></mask><g transform="translate(1011.12229313446 71.69586756871598) rotate(0 87.3544921875 20.700000000000003)"><text x="87.3544921875" y="0" font-family="Helvetica, Segoe UI Emoji" font-size="36px" fill="#1e1e1e" text-anchor="middle" style="white-space: pre;" direction="ltr" dominant-baseline="text-before-edge">Результат</text></g><g transform="translate(1140.0583470810834 357.13142945926853) rotate(0 272.9292297363281 12.972817212125122)"><text x="272.9292297363281" y="0" font-family="Helvetica, Segoe UI Emoji" font-size="22.561421238478466px" fill="#1e1e1e" text-anchor="middle" style="white-space: pre;" direction="ltr" dominant-baseline="text-before-edge">Н_ЛЮДИ.ИД, Н_ОБУЧЕНИЯ.НЗК, Н_УЧЕНИКИ.ИД</text></g></svg>